<mxfile host="app.diagrams.net" modified="2022-10-02T15:53:37.579Z" agent="5.0 (Windows NT 10.0; Win64; x64) AppleWebKit/537.36 (KHTML, like Gecko) Chrome/105.0.0.0 Safari/537.36" etag="P7CcEbxjw8EYyv0_icKx" version="20.4.0" type="gitlab" pages="8">
  <diagram name="Login" id="03018318-947c-dd8e-b7a3-06fadd420f32">
    <mxGraphModel dx="1738" dy="1022" grid="1" gridSize="10" guides="1" tooltips="1" connect="1" arrows="1" fold="1" page="1" pageScale="1" pageWidth="1100" pageHeight="850" background="#ffffff" math="0" shadow="0">
      <root>
        <mxCell id="0" />
        <mxCell id="1" parent="0" />
        <mxCell id="677b7b8949515195-1" value="" style="whiteSpace=wrap;html=1;rounded=0;shadow=0;labelBackgroundColor=none;strokeWidth=1;fontFamily=Verdana;fontSize=12;align=center;comic=1;" parent="1" vertex="1">
          <mxGeometry x="20" y="10" width="1060" height="810" as="geometry" />
        </mxCell>
        <mxCell id="677b7b8949515195-2" value="LOGO" style="whiteSpace=wrap;html=1;rounded=0;shadow=0;labelBackgroundColor=none;strokeWidth=1;fontFamily=Verdana;fontSize=28;align=center;comic=1;" parent="1" vertex="1">
          <mxGeometry x="40" y="60" width="190" height="50" as="geometry" />
        </mxCell>
        <mxCell id="677b7b8949515195-16" value="" style="verticalLabelPosition=bottom;shadow=0;dashed=0;align=center;html=1;verticalAlign=top;strokeWidth=1;shape=mxgraph.mockup.graphics.simpleIcon;strokeColor=#999999;rounded=0;labelBackgroundColor=none;fontFamily=Verdana;fontSize=14;fontColor=#000000;comic=1;" parent="1" vertex="1">
          <mxGeometry x="50" y="165" width="490" height="505" as="geometry" />
        </mxCell>
        <mxCell id="677b7b8949515195-25" value="" style="whiteSpace=wrap;html=1;rounded=0;shadow=0;labelBackgroundColor=none;strokeWidth=1;fillColor=none;fontFamily=Verdana;fontSize=12;align=center;comic=1;" parent="1" vertex="1">
          <mxGeometry x="570" y="165" width="480" height="505" as="geometry" />
        </mxCell>
        <mxCell id="UdsqHwpvmeGNgo56mXLx-1" value="&lt;font style=&quot;font-size: 24px;&quot;&gt;Sign In&lt;/font&gt;" style="text;html=1;strokeColor=none;fillColor=none;align=center;verticalAlign=middle;whiteSpace=wrap;rounded=0;" parent="1" vertex="1">
          <mxGeometry x="762.5" y="200" width="105" height="30" as="geometry" />
        </mxCell>
        <mxCell id="UdsqHwpvmeGNgo56mXLx-2" value="" style="rounded=1;whiteSpace=wrap;html=1;fontSize=24;" parent="1" vertex="1">
          <mxGeometry x="610" y="265" width="410" height="85" as="geometry" />
        </mxCell>
        <mxCell id="UdsqHwpvmeGNgo56mXLx-3" value="&lt;font style=&quot;font-size: 18px;&quot;&gt;&lt;b&gt;Username&lt;/b&gt;&lt;/font&gt;" style="text;html=1;strokeColor=none;fillColor=none;align=center;verticalAlign=middle;whiteSpace=wrap;rounded=0;fontSize=24;" parent="1" vertex="1">
          <mxGeometry x="620" y="275" width="100" height="25" as="geometry" />
        </mxCell>
        <mxCell id="UdsqHwpvmeGNgo56mXLx-4" value="" style="rounded=1;whiteSpace=wrap;html=1;fontSize=24;" parent="1" vertex="1">
          <mxGeometry x="610" y="383" width="410" height="85" as="geometry" />
        </mxCell>
        <mxCell id="UdsqHwpvmeGNgo56mXLx-5" value="&lt;font style=&quot;font-size: 18px;&quot;&gt;&lt;b&gt;Password&lt;/b&gt;&lt;/font&gt;" style="text;html=1;strokeColor=none;fillColor=none;align=center;verticalAlign=middle;whiteSpace=wrap;rounded=0;fontSize=24;" parent="1" vertex="1">
          <mxGeometry x="620" y="400" width="100" height="25" as="geometry" />
        </mxCell>
        <mxCell id="UdsqHwpvmeGNgo56mXLx-6" value="" style="whiteSpace=wrap;html=1;aspect=fixed;fontSize=18;" parent="1" vertex="1">
          <mxGeometry x="610" y="490" width="20" height="20" as="geometry" />
        </mxCell>
        <mxCell id="UdsqHwpvmeGNgo56mXLx-8" value="" style="verticalLabelPosition=bottom;verticalAlign=top;html=1;shape=mxgraph.basic.tick;fontSize=18;" parent="1" vertex="1">
          <mxGeometry x="613.5" y="495" width="13" height="10" as="geometry" />
        </mxCell>
        <mxCell id="UdsqHwpvmeGNgo56mXLx-9" value="Remember me" style="text;html=1;strokeColor=none;fillColor=none;align=center;verticalAlign=middle;whiteSpace=wrap;rounded=0;fontSize=18;" parent="1" vertex="1">
          <mxGeometry x="645" y="485" width="130" height="30" as="geometry" />
        </mxCell>
        <mxCell id="UdsqHwpvmeGNgo56mXLx-10" style="edgeStyle=orthogonalEdgeStyle;rounded=0;orthogonalLoop=1;jettySize=auto;html=1;exitX=0.5;exitY=1;exitDx=0;exitDy=0;fontSize=18;" parent="1" source="UdsqHwpvmeGNgo56mXLx-9" target="UdsqHwpvmeGNgo56mXLx-9" edge="1">
          <mxGeometry relative="1" as="geometry" />
        </mxCell>
        <mxCell id="UdsqHwpvmeGNgo56mXLx-11" value="Forgot Password?" style="text;html=1;strokeColor=none;fillColor=none;align=center;verticalAlign=middle;whiteSpace=wrap;rounded=0;fontSize=18;" parent="1" vertex="1">
          <mxGeometry x="867.5" y="485" width="150" height="30" as="geometry" />
        </mxCell>
        <mxCell id="UdsqHwpvmeGNgo56mXLx-12" value="" style="rounded=1;whiteSpace=wrap;html=1;fontSize=18;" parent="1" vertex="1">
          <mxGeometry x="610" y="560" width="410" height="50" as="geometry" />
        </mxCell>
        <mxCell id="UdsqHwpvmeGNgo56mXLx-13" value="Sign In" style="text;html=1;strokeColor=none;fillColor=none;align=center;verticalAlign=middle;whiteSpace=wrap;rounded=0;fontSize=18;" parent="1" vertex="1">
          <mxGeometry x="775" y="570" width="60" height="30" as="geometry" />
        </mxCell>
      </root>
    </mxGraphModel>
  </diagram>
  <diagram id="28LpXoS0LT-sCyKGoPB5" name="Home">
    <mxGraphModel dx="2607" dy="1533" grid="1" gridSize="10" guides="1" tooltips="1" connect="1" arrows="1" fold="1" page="1" pageScale="1" pageWidth="1100" pageHeight="850" math="0" shadow="0">
      <root>
        <mxCell id="0" />
        <mxCell id="1" parent="0" />
        <mxCell id="3lk_yUzZL0oR9BHuXsL9-1" value="" style="whiteSpace=wrap;html=1;rounded=0;shadow=0;labelBackgroundColor=none;strokeWidth=1;fontFamily=Verdana;fontSize=12;align=center;comic=1;" vertex="1" parent="1">
          <mxGeometry x="19" y="30" width="1060" height="2890" as="geometry" />
        </mxCell>
        <mxCell id="3lk_yUzZL0oR9BHuXsL9-2" value="" style="whiteSpace=wrap;html=1;rounded=0;shadow=0;labelBackgroundColor=none;strokeWidth=1;fillColor=none;fontFamily=Verdana;fontSize=12;align=center;comic=1;" vertex="1" parent="1">
          <mxGeometry x="39" y="50" width="1020" height="80" as="geometry" />
        </mxCell>
        <mxCell id="3lk_yUzZL0oR9BHuXsL9-3" value="LOGO" style="whiteSpace=wrap;html=1;rounded=0;shadow=0;labelBackgroundColor=none;strokeWidth=1;fontFamily=Verdana;fontSize=28;align=center;comic=1;" vertex="1" parent="1">
          <mxGeometry x="67.25" y="70" width="150" height="40" as="geometry" />
        </mxCell>
        <mxCell id="3lk_yUzZL0oR9BHuXsL9-4" value="Home" style="text;html=1;strokeColor=none;fillColor=none;align=center;verticalAlign=middle;whiteSpace=wrap;rounded=0;fontSize=18;" vertex="1" parent="1">
          <mxGeometry x="474" y="75" width="80" height="30" as="geometry" />
        </mxCell>
        <mxCell id="3lk_yUzZL0oR9BHuXsL9-5" value="Ground Status" style="text;html=1;strokeColor=none;fillColor=none;align=center;verticalAlign=middle;whiteSpace=wrap;rounded=0;fontSize=18;" vertex="1" parent="1">
          <mxGeometry x="569" y="75" width="130" height="30" as="geometry" />
        </mxCell>
        <mxCell id="3lk_yUzZL0oR9BHuXsL9-6" value="&lt;font style=&quot;font-size: 18px;&quot;&gt;Login&lt;/font&gt;" style="whiteSpace=wrap;html=1;rounded=0;shadow=0;labelBackgroundColor=none;strokeWidth=1;fontFamily=Verdana;fontSize=28;align=center;comic=1;" vertex="1" parent="1">
          <mxGeometry x="959" y="70" width="70" height="40" as="geometry" />
        </mxCell>
        <mxCell id="x3C_PMNkNT-a53uKFIDU-1" value="" style="rounded=1;whiteSpace=wrap;html=1;fontSize=20;" vertex="1" parent="1">
          <mxGeometry x="79" y="470" width="180" height="60" as="geometry" />
        </mxCell>
        <mxCell id="x3C_PMNkNT-a53uKFIDU-2" value="Book Now" style="text;html=1;strokeColor=none;fillColor=none;align=center;verticalAlign=middle;whiteSpace=wrap;rounded=0;fontSize=20;" vertex="1" parent="1">
          <mxGeometry x="116.5" y="485" width="105" height="30" as="geometry" />
        </mxCell>
        <mxCell id="x3C_PMNkNT-a53uKFIDU-3" value="" style="verticalLabelPosition=bottom;shadow=0;dashed=0;align=center;html=1;verticalAlign=top;strokeWidth=1;shape=mxgraph.mockup.graphics.simpleIcon;strokeColor=#999999;rounded=0;labelBackgroundColor=none;fontFamily=Verdana;fontSize=14;fontColor=#000000;comic=1;" vertex="1" parent="1">
          <mxGeometry x="509" y="180" width="545" height="370" as="geometry" />
        </mxCell>
        <mxCell id="x3C_PMNkNT-a53uKFIDU-4" value="&lt;font style=&quot;line-height: 1.4; font-size: 35px;&quot;&gt;Gyalpozhing Turf Booking&lt;/font&gt;" style="text;html=1;strokeColor=none;fillColor=none;align=left;verticalAlign=middle;whiteSpace=wrap;rounded=0;fontSize=18;" vertex="1" parent="1">
          <mxGeometry x="74" y="180" width="400" height="120" as="geometry" />
        </mxCell>
        <mxCell id="jcmbYtluNmZdqwHN9EjL-1" value="&lt;h1 style=&quot;font-size: 20px;&quot;&gt;&lt;span style=&quot;background-color: initial; font-weight: normal;&quot;&gt;Lorem ipsum dolor sit amet, consectetur adipisicing elit, sed do eiusmod tempor incididunt ut labore et dolore magna aliqua.&lt;/span&gt;&lt;br&gt;&lt;/h1&gt;" style="text;html=1;strokeColor=none;fillColor=none;spacing=5;spacingTop=-20;whiteSpace=wrap;overflow=hidden;rounded=0;fontSize=35;" vertex="1" parent="1">
          <mxGeometry x="74" y="330" width="390" height="120" as="geometry" />
        </mxCell>
        <mxCell id="C14pZlyhhS7TLcDpp8Ah-1" value="&lt;h1 style=&quot;font-size: 20px;&quot;&gt;&lt;span style=&quot;background-color: initial; font-weight: normal;&quot;&gt;Lorem ipsum dolor sit amet, consectetur adipisicing elit, sed do eiusmod tempor incididunt ut labore et dolore magna aliqua.&lt;/span&gt;&lt;span style=&quot;font-weight: normal;&quot;&gt;Lorem ipsum dolor sit amet, consectetur adipisicing elit, sed do eiusmod tempor incididunt ut labore et dolore magna aliqua. Lorem ipsum dolor sit amet, consectetur adipisicing elit, sed do eiusmod tempor.&lt;/span&gt;&lt;br&gt;&lt;/h1&gt;" style="text;html=1;strokeColor=none;fillColor=none;spacing=5;spacingTop=-20;whiteSpace=wrap;overflow=hidden;rounded=0;fontSize=35;" vertex="1" parent="1">
          <mxGeometry x="439" y="830" width="600" height="150" as="geometry" />
        </mxCell>
        <mxCell id="C14pZlyhhS7TLcDpp8Ah-2" value="" style="verticalLabelPosition=bottom;shadow=0;dashed=0;align=center;html=1;verticalAlign=top;strokeWidth=1;shape=mxgraph.mockup.graphics.simpleIcon;strokeColor=#999999;rounded=0;labelBackgroundColor=none;fontFamily=Verdana;fontSize=14;fontColor=#000000;comic=1;" vertex="1" parent="1">
          <mxGeometry x="77.5" y="750" width="301.5" height="290" as="geometry" />
        </mxCell>
        <mxCell id="C14pZlyhhS7TLcDpp8Ah-3" value="&lt;font style=&quot;font-size: 30px;&quot;&gt;About&lt;/font&gt;" style="text;html=1;strokeColor=none;fillColor=none;align=center;verticalAlign=middle;whiteSpace=wrap;rounded=0;fontSize=20;" vertex="1" parent="1">
          <mxGeometry x="449" y="660" width="130" height="50" as="geometry" />
        </mxCell>
        <mxCell id="C14pZlyhhS7TLcDpp8Ah-4" value="&lt;font style=&quot;font-size: 20px;&quot;&gt;&lt;b&gt;Section Title&lt;/b&gt;&lt;/font&gt;" style="text;html=1;strokeColor=none;fillColor=none;align=center;verticalAlign=middle;whiteSpace=wrap;rounded=0;fontSize=30;" vertex="1" parent="1">
          <mxGeometry x="439" y="770" width="126.5" height="40" as="geometry" />
        </mxCell>
        <mxCell id="pJ6s4FNVI2hZ2-JoyW5o-2" value="&lt;font style=&quot;font-size: 30px;&quot;&gt;Our Team&lt;/font&gt;" style="text;html=1;strokeColor=none;fillColor=none;align=center;verticalAlign=middle;whiteSpace=wrap;rounded=0;fontSize=20;" vertex="1" parent="1">
          <mxGeometry x="439" y="1110" width="185" height="50" as="geometry" />
        </mxCell>
        <mxCell id="pJ6s4FNVI2hZ2-JoyW5o-3" value="" style="verticalLabelPosition=bottom;shadow=0;dashed=0;align=center;html=1;verticalAlign=top;strokeWidth=1;shape=mxgraph.mockup.graphics.simpleIcon;strokeColor=#999999;rounded=0;labelBackgroundColor=none;fontFamily=Verdana;fontSize=14;fontColor=#000000;comic=1;" vertex="1" parent="1">
          <mxGeometry x="62.5" y="1340" width="221.5" height="240" as="geometry" />
        </mxCell>
        <mxCell id="pJ6s4FNVI2hZ2-JoyW5o-4" value="&lt;h1 style=&quot;text-align: center; font-size: 20px;&quot;&gt;&lt;span style=&quot;background-color: initial; font-weight: normal;&quot;&gt;Lorem ipsum dolor sit amet, consectetur adipisicing elit, sed do eiusmod tempor incididunt ut labore et dolore magna aliqua.&lt;/span&gt;&lt;span style=&quot;font-weight: normal;&quot;&gt;Lorem ipsum dolor sit amet, consectetur adipisicing elit, sed do.&lt;/span&gt;&lt;br&gt;&lt;/h1&gt;" style="text;html=1;strokeColor=none;fillColor=none;spacing=5;spacingTop=-20;whiteSpace=wrap;overflow=hidden;rounded=0;fontSize=35;" vertex="1" parent="1">
          <mxGeometry x="139" y="1190" width="860" height="70" as="geometry" />
        </mxCell>
        <mxCell id="pJ6s4FNVI2hZ2-JoyW5o-5" value="" style="verticalLabelPosition=bottom;shadow=0;dashed=0;align=center;html=1;verticalAlign=top;strokeWidth=1;shape=mxgraph.mockup.graphics.simpleIcon;strokeColor=#999999;rounded=0;labelBackgroundColor=none;fontFamily=Verdana;fontSize=14;fontColor=#000000;comic=1;" vertex="1" parent="1">
          <mxGeometry x="324" y="1340" width="220" height="240" as="geometry" />
        </mxCell>
        <mxCell id="pJ6s4FNVI2hZ2-JoyW5o-6" value="" style="verticalLabelPosition=bottom;shadow=0;dashed=0;align=center;html=1;verticalAlign=top;strokeWidth=1;shape=mxgraph.mockup.graphics.simpleIcon;strokeColor=#999999;rounded=0;labelBackgroundColor=none;fontFamily=Verdana;fontSize=14;fontColor=#000000;comic=1;" vertex="1" parent="1">
          <mxGeometry x="579" y="1340" width="223.5" height="240" as="geometry" />
        </mxCell>
        <mxCell id="pJ6s4FNVI2hZ2-JoyW5o-7" value="" style="verticalLabelPosition=bottom;shadow=0;dashed=0;align=center;html=1;verticalAlign=top;strokeWidth=1;shape=mxgraph.mockup.graphics.simpleIcon;strokeColor=#999999;rounded=0;labelBackgroundColor=none;fontFamily=Verdana;fontSize=14;fontColor=#000000;comic=1;" vertex="1" parent="1">
          <mxGeometry x="839" y="1340" width="220" height="240" as="geometry" />
        </mxCell>
        <mxCell id="pJ6s4FNVI2hZ2-JoyW5o-8" value="&amp;lt;" style="text;html=1;strokeColor=none;fillColor=none;align=center;verticalAlign=middle;whiteSpace=wrap;rounded=0;fontSize=20;" vertex="1" parent="1">
          <mxGeometry x="509" y="1630" width="13.5" height="10" as="geometry" />
        </mxCell>
        <mxCell id="pJ6s4FNVI2hZ2-JoyW5o-9" value="&amp;gt;" style="text;html=1;strokeColor=none;fillColor=none;align=center;verticalAlign=middle;whiteSpace=wrap;rounded=0;fontSize=20;" vertex="1" parent="1">
          <mxGeometry x="589" y="1630" width="10" height="10" as="geometry" />
        </mxCell>
        <mxCell id="pJ6s4FNVI2hZ2-JoyW5o-10" value="" style="ellipse;whiteSpace=wrap;html=1;aspect=fixed;fontSize=20;fillColor=#000000;" vertex="1" parent="1">
          <mxGeometry x="526.5" y="1630" width="10" height="10" as="geometry" />
        </mxCell>
        <mxCell id="pJ6s4FNVI2hZ2-JoyW5o-11" value="" style="ellipse;whiteSpace=wrap;html=1;aspect=fixed;fontSize=20;fillColor=#FFFFFF;" vertex="1" parent="1">
          <mxGeometry x="549" y="1630" width="10" height="10" as="geometry" />
        </mxCell>
        <mxCell id="pJ6s4FNVI2hZ2-JoyW5o-12" value="" style="ellipse;whiteSpace=wrap;html=1;aspect=fixed;fontSize=20;fillColor=#FFFFFF;" vertex="1" parent="1">
          <mxGeometry x="569" y="1630" width="10" height="10" as="geometry" />
        </mxCell>
        <mxCell id="Fw2Qlh0gjbZtp2c1oF9M-1" value="&lt;font style=&quot;font-size: 30px;&quot;&gt;Pricing&lt;/font&gt;" style="text;html=1;strokeColor=none;fillColor=none;align=center;verticalAlign=middle;whiteSpace=wrap;rounded=0;fontSize=20;" vertex="1" parent="1">
          <mxGeometry x="456.5" y="1730" width="185" height="50" as="geometry" />
        </mxCell>
        <mxCell id="Fw2Qlh0gjbZtp2c1oF9M-2" value="&lt;h1 style=&quot;text-align: center; font-size: 20px;&quot;&gt;&lt;span style=&quot;background-color: initial; font-weight: normal;&quot;&gt;Lorem ipsum dolor sit amet, consectetur adipisicing elit, sed do eiusmod tempor incididuntsdf.&lt;/span&gt;&lt;br&gt;&lt;/h1&gt;" style="text;html=1;strokeColor=none;fillColor=none;spacing=5;spacingTop=-20;whiteSpace=wrap;overflow=hidden;rounded=0;fontSize=35;" vertex="1" parent="1">
          <mxGeometry x="121.5" y="1790" width="857.5" height="50" as="geometry" />
        </mxCell>
        <mxCell id="Fw2Qlh0gjbZtp2c1oF9M-3" value="" style="rounded=1;whiteSpace=wrap;html=1;fontSize=20;fillColor=#FFFFFF;" vertex="1" parent="1">
          <mxGeometry x="390.5" y="1840" width="367" height="80" as="geometry" />
        </mxCell>
        <mxCell id="Fw2Qlh0gjbZtp2c1oF9M-4" value="" style="rounded=1;whiteSpace=wrap;html=1;fontSize=20;fillColor=#FFFFFF;" vertex="1" parent="1">
          <mxGeometry x="565.5" y="1840" width="190" height="80" as="geometry" />
        </mxCell>
        <mxCell id="Fw2Qlh0gjbZtp2c1oF9M-5" value="&lt;font style=&quot;font-size: 18px;&quot;&gt;SUMMER TIME&lt;/font&gt;" style="text;html=1;strokeColor=none;fillColor=none;align=center;verticalAlign=middle;whiteSpace=wrap;rounded=0;fontSize=20;" vertex="1" parent="1">
          <mxGeometry x="404" y="1857.5" width="140" height="45" as="geometry" />
        </mxCell>
        <mxCell id="Fw2Qlh0gjbZtp2c1oF9M-6" value="&lt;font style=&quot;font-size: 18px;&quot;&gt;WINTER TIME&lt;/font&gt;" style="text;html=1;strokeColor=none;fillColor=none;align=center;verticalAlign=middle;whiteSpace=wrap;rounded=0;fontSize=20;" vertex="1" parent="1">
          <mxGeometry x="590.5" y="1857.5" width="140" height="45" as="geometry" />
        </mxCell>
        <mxCell id="Dk6HpSo8t9v_sODAQv4F-1" value="" style="rounded=0;whiteSpace=wrap;html=1;fontSize=22;" vertex="1" parent="1">
          <mxGeometry x="116.5" y="1990" width="400" height="410" as="geometry" />
        </mxCell>
        <mxCell id="Dk6HpSo8t9v_sODAQv4F-2" value="" style="rounded=0;whiteSpace=wrap;html=1;fontSize=22;" vertex="1" parent="1">
          <mxGeometry x="589" y="1990" width="400" height="410" as="geometry" />
        </mxCell>
        <mxCell id="Dk6HpSo8t9v_sODAQv4F-3" value="&lt;font style=&quot;font-size: 20px;&quot;&gt;This is the description&lt;/font&gt;" style="text;html=1;strokeColor=none;fillColor=none;align=center;verticalAlign=middle;whiteSpace=wrap;rounded=0;fontSize=22;" vertex="1" parent="1">
          <mxGeometry x="139" y="2080" width="230" height="30" as="geometry" />
        </mxCell>
        <mxCell id="Dk6HpSo8t9v_sODAQv4F-4" value="&lt;font style=&quot;font-size: 24px;&quot;&gt;Day Time&lt;/font&gt;" style="text;html=1;strokeColor=none;fillColor=none;align=center;verticalAlign=middle;whiteSpace=wrap;rounded=0;" vertex="1" parent="1">
          <mxGeometry x="149" y="2020" width="115" height="30" as="geometry" />
        </mxCell>
        <mxCell id="Dk6HpSo8t9v_sODAQv4F-5" value="&lt;font style=&quot;font-size: 20px;&quot;&gt;This is the description&lt;/font&gt;" style="text;html=1;strokeColor=none;fillColor=none;align=center;verticalAlign=middle;whiteSpace=wrap;rounded=0;fontSize=22;" vertex="1" parent="1">
          <mxGeometry x="139" y="2130" width="230" height="30" as="geometry" />
        </mxCell>
        <mxCell id="Dk6HpSo8t9v_sODAQv4F-6" value="&lt;font style=&quot;font-size: 20px;&quot;&gt;This is the description&lt;/font&gt;" style="text;html=1;strokeColor=none;fillColor=none;align=center;verticalAlign=middle;whiteSpace=wrap;rounded=0;fontSize=22;" vertex="1" parent="1">
          <mxGeometry x="139" y="2180" width="230" height="30" as="geometry" />
        </mxCell>
        <mxCell id="Dk6HpSo8t9v_sODAQv4F-7" value="&lt;font style=&quot;font-size: 20px;&quot;&gt;This is the description&lt;/font&gt;" style="text;html=1;strokeColor=none;fillColor=none;align=center;verticalAlign=middle;whiteSpace=wrap;rounded=0;fontSize=22;" vertex="1" parent="1">
          <mxGeometry x="139" y="2230" width="230" height="30" as="geometry" />
        </mxCell>
        <mxCell id="Dk6HpSo8t9v_sODAQv4F-8" value="" style="rounded=1;whiteSpace=wrap;html=1;fontSize=20;" vertex="1" parent="1">
          <mxGeometry x="149" y="2300" width="320" height="50" as="geometry" />
        </mxCell>
        <mxCell id="Dk6HpSo8t9v_sODAQv4F-9" value="&lt;font style=&quot;font-size: 24px;&quot;&gt;Night Time&lt;/font&gt;" style="text;html=1;strokeColor=none;fillColor=none;align=center;verticalAlign=middle;whiteSpace=wrap;rounded=0;" vertex="1" parent="1">
          <mxGeometry x="624" y="2020" width="155" height="30" as="geometry" />
        </mxCell>
        <mxCell id="Dk6HpSo8t9v_sODAQv4F-10" value="&lt;font style=&quot;font-size: 20px;&quot;&gt;This is the description&lt;/font&gt;" style="text;html=1;strokeColor=none;fillColor=none;align=center;verticalAlign=middle;whiteSpace=wrap;rounded=0;fontSize=22;" vertex="1" parent="1">
          <mxGeometry x="624" y="2080" width="230" height="30" as="geometry" />
        </mxCell>
        <mxCell id="Dk6HpSo8t9v_sODAQv4F-11" value="&lt;font style=&quot;font-size: 20px;&quot;&gt;This is the description&lt;/font&gt;" style="text;html=1;strokeColor=none;fillColor=none;align=center;verticalAlign=middle;whiteSpace=wrap;rounded=0;fontSize=22;" vertex="1" parent="1">
          <mxGeometry x="624" y="2130" width="230" height="30" as="geometry" />
        </mxCell>
        <mxCell id="Dk6HpSo8t9v_sODAQv4F-12" value="&lt;font style=&quot;font-size: 20px;&quot;&gt;This is the description&lt;/font&gt;" style="text;html=1;strokeColor=none;fillColor=none;align=center;verticalAlign=middle;whiteSpace=wrap;rounded=0;fontSize=22;" vertex="1" parent="1">
          <mxGeometry x="624" y="2180" width="230" height="30" as="geometry" />
        </mxCell>
        <mxCell id="Dk6HpSo8t9v_sODAQv4F-13" value="&lt;font style=&quot;font-size: 20px;&quot;&gt;This is the description&lt;/font&gt;" style="text;html=1;strokeColor=none;fillColor=none;align=center;verticalAlign=middle;whiteSpace=wrap;rounded=0;fontSize=22;" vertex="1" parent="1">
          <mxGeometry x="624" y="2230" width="230" height="30" as="geometry" />
        </mxCell>
        <mxCell id="Dk6HpSo8t9v_sODAQv4F-14" value="" style="rounded=1;whiteSpace=wrap;html=1;fontSize=20;" vertex="1" parent="1">
          <mxGeometry x="629" y="2300" width="320" height="50" as="geometry" />
        </mxCell>
        <mxCell id="Dk6HpSo8t9v_sODAQv4F-15" value="Check Status" style="text;html=1;strokeColor=none;fillColor=none;align=center;verticalAlign=middle;whiteSpace=wrap;rounded=0;fontSize=20;" vertex="1" parent="1">
          <mxGeometry x="235.5" y="2310" width="150" height="30" as="geometry" />
        </mxCell>
        <mxCell id="Dk6HpSo8t9v_sODAQv4F-16" value="Check Status" style="text;html=1;strokeColor=none;fillColor=none;align=center;verticalAlign=middle;whiteSpace=wrap;rounded=0;fontSize=20;" vertex="1" parent="1">
          <mxGeometry x="706.5" y="2310" width="150" height="30" as="geometry" />
        </mxCell>
        <mxCell id="wSEONsZWKB2vG-lBR0xf-1" value="LOGO" style="whiteSpace=wrap;html=1;rounded=0;shadow=0;labelBackgroundColor=none;strokeWidth=1;fontFamily=Verdana;fontSize=28;align=center;comic=1;" vertex="1" parent="1">
          <mxGeometry x="77.5" y="2520" width="150" height="40" as="geometry" />
        </mxCell>
        <mxCell id="wSEONsZWKB2vG-lBR0xf-2" value="&lt;font size=&quot;1&quot; style=&quot;&quot;&gt;&lt;b style=&quot;font-size: 26px;&quot;&gt;Contact&lt;/b&gt;&lt;/font&gt;" style="text;html=1;strokeColor=none;fillColor=none;align=center;verticalAlign=middle;whiteSpace=wrap;rounded=0;fontSize=20;" vertex="1" parent="1">
          <mxGeometry x="319" y="2525" width="115" height="30" as="geometry" />
        </mxCell>
        <mxCell id="wSEONsZWKB2vG-lBR0xf-3" value="" style="shape=mxgraph.signs.tech.telephone_3;html=1;pointerEvents=1;fillColor=#000000;strokeColor=none;verticalLabelPosition=bottom;verticalAlign=top;align=center;fontSize=22;" vertex="1" parent="1">
          <mxGeometry x="329" y="2580" width="14" height="20" as="geometry" />
        </mxCell>
        <mxCell id="wSEONsZWKB2vG-lBR0xf-4" value="" style="sketch=0;outlineConnect=0;fontColor=#232F3E;gradientColor=none;fillColor=#232F3D;strokeColor=none;dashed=0;verticalLabelPosition=bottom;verticalAlign=top;align=center;html=1;fontSize=12;fontStyle=0;aspect=fixed;pointerEvents=1;shape=mxgraph.aws4.email_2;" vertex="1" parent="1">
          <mxGeometry x="329" y="2640" width="23.88" height="15" as="geometry" />
        </mxCell>
        <mxCell id="wSEONsZWKB2vG-lBR0xf-5" value="+975 17234567" style="text;html=1;strokeColor=none;fillColor=none;align=center;verticalAlign=middle;whiteSpace=wrap;rounded=0;fontSize=22;" vertex="1" parent="1">
          <mxGeometry x="369" y="2580" width="170" height="20" as="geometry" />
        </mxCell>
        <mxCell id="wSEONsZWKB2vG-lBR0xf-6" value="abcdef12@gmail.com" style="text;html=1;strokeColor=none;fillColor=none;align=center;verticalAlign=middle;whiteSpace=wrap;rounded=0;fontSize=22;" vertex="1" parent="1">
          <mxGeometry x="385.5" y="2640" width="210" height="20" as="geometry" />
        </mxCell>
        <mxCell id="wSEONsZWKB2vG-lBR0xf-7" value="" style="shape=image;html=1;verticalAlign=top;verticalLabelPosition=bottom;labelBackgroundColor=#ffffff;imageAspect=0;aspect=fixed;image=https://cdn1.iconfinder.com/data/icons/social-media-rounded-corners/512/Rounded_Facebook_svg-128.png;fontSize=22;" vertex="1" parent="1">
          <mxGeometry x="329" y="2710" width="40" height="40" as="geometry" />
        </mxCell>
        <mxCell id="wSEONsZWKB2vG-lBR0xf-8" value="" style="shape=image;html=1;verticalAlign=top;verticalLabelPosition=bottom;labelBackgroundColor=#ffffff;imageAspect=0;aspect=fixed;image=https://cdn1.iconfinder.com/data/icons/social-media-rounded-corners/512/Rounded_Instagram_svg-128.png;fontSize=22;" vertex="1" parent="1">
          <mxGeometry x="399" y="2710" width="40" height="40" as="geometry" />
        </mxCell>
        <mxCell id="bBW6B6wyaS8PHvfzWSJn-1" value="" style="shape=image;html=1;verticalAlign=top;verticalLabelPosition=bottom;labelBackgroundColor=#ffffff;imageAspect=0;aspect=fixed;image=https://cdn1.iconfinder.com/data/icons/social-media-rounded-corners/512/Rounded_Twitter5_svg-128.png;fontSize=22;" vertex="1" parent="1">
          <mxGeometry x="469" y="2710" width="40" height="40" as="geometry" />
        </mxCell>
        <mxCell id="bBW6B6wyaS8PHvfzWSJn-2" value="" style="shape=image;html=1;verticalAlign=top;verticalLabelPosition=bottom;labelBackgroundColor=#ffffff;imageAspect=0;aspect=fixed;image=https://cdn3.iconfinder.com/data/icons/brands-applications/512/linked_in-128.png;fontSize=22;" vertex="1" parent="1">
          <mxGeometry x="539" y="2710" width="40" height="40" as="geometry" />
        </mxCell>
        <mxCell id="gztUfN451Ss9NFXvi7VF-1" value="" style="whiteSpace=wrap;html=1;rounded=0;shadow=0;labelBackgroundColor=none;strokeColor=#000000;strokeWidth=1;fillColor=none;fontFamily=Verdana;fontSize=12;fontColor=#000000;align=center;comic=1;" vertex="1" parent="1">
          <mxGeometry x="20.25" y="2460" width="1060" height="360" as="geometry" />
        </mxCell>
        <mxCell id="gztUfN451Ss9NFXvi7VF-9" value="&amp;lt;" style="text;html=1;strokeColor=none;fillColor=none;align=center;verticalAlign=middle;whiteSpace=wrap;rounded=0;fontSize=20;" vertex="1" parent="1">
          <mxGeometry x="929" y="990" width="13.5" height="10" as="geometry" />
        </mxCell>
        <mxCell id="gztUfN451Ss9NFXvi7VF-10" value="&amp;gt;" style="text;html=1;strokeColor=none;fillColor=none;align=center;verticalAlign=middle;whiteSpace=wrap;rounded=0;fontSize=20;" vertex="1" parent="1">
          <mxGeometry x="1009" y="990" width="10" height="10" as="geometry" />
        </mxCell>
        <mxCell id="gztUfN451Ss9NFXvi7VF-11" value="" style="ellipse;whiteSpace=wrap;html=1;aspect=fixed;fontSize=20;fillColor=#000000;" vertex="1" parent="1">
          <mxGeometry x="949" y="990" width="10" height="10" as="geometry" />
        </mxCell>
        <mxCell id="gztUfN451Ss9NFXvi7VF-12" value="" style="ellipse;whiteSpace=wrap;html=1;aspect=fixed;fontSize=20;fillColor=#FFFFFF;" vertex="1" parent="1">
          <mxGeometry x="969" y="990" width="10" height="10" as="geometry" />
        </mxCell>
        <mxCell id="gztUfN451Ss9NFXvi7VF-13" value="" style="ellipse;whiteSpace=wrap;html=1;aspect=fixed;fontSize=20;fillColor=#FFFFFF;" vertex="1" parent="1">
          <mxGeometry x="989" y="990" width="10" height="10" as="geometry" />
        </mxCell>
        <mxCell id="gztUfN451Ss9NFXvi7VF-35" value="&lt;font size=&quot;1&quot; style=&quot;&quot;&gt;&lt;b style=&quot;font-size: 26px;&quot;&gt;Feedback&lt;/b&gt;&lt;/font&gt;" style="text;html=1;strokeColor=none;fillColor=none;align=center;verticalAlign=middle;whiteSpace=wrap;rounded=0;fontSize=20;" vertex="1" parent="1">
          <mxGeometry x="719" y="2525" width="125" height="30" as="geometry" />
        </mxCell>
        <mxCell id="gztUfN451Ss9NFXvi7VF-36" value="" style="rounded=0;whiteSpace=wrap;html=1;fontSize=26;" vertex="1" parent="1">
          <mxGeometry x="719" y="2580" width="240" height="137" as="geometry" />
        </mxCell>
        <mxCell id="gztUfN451Ss9NFXvi7VF-37" value="" style="rounded=1;whiteSpace=wrap;html=1;fontSize=26;" vertex="1" parent="1">
          <mxGeometry x="979" y="2580" width="90" height="37.5" as="geometry" />
        </mxCell>
        <mxCell id="gztUfN451Ss9NFXvi7VF-38" value="&lt;font style=&quot;font-size: 19px;&quot;&gt;Send&lt;/font&gt;" style="text;html=1;strokeColor=none;fillColor=none;align=center;verticalAlign=middle;whiteSpace=wrap;rounded=0;fontSize=26;" vertex="1" parent="1">
          <mxGeometry x="999" y="2585.25" width="60" height="27" as="geometry" />
        </mxCell>
        <mxCell id="gztUfN451Ss9NFXvi7VF-39" value="Copyright 2022 . Group 3" style="text;html=1;strokeColor=none;fillColor=none;align=center;verticalAlign=middle;whiteSpace=wrap;rounded=0;fontSize=19;" vertex="1" parent="1">
          <mxGeometry x="442.5" y="2860" width="253" height="30" as="geometry" />
        </mxCell>
      </root>
    </mxGraphModel>
  </diagram>
  <diagram id="Yj6VvP5z0izDWDGTgbwP" name="Booking Form">
    <mxGraphModel dx="855" dy="1150" grid="1" gridSize="10" guides="1" tooltips="1" connect="1" arrows="1" fold="1" page="1" pageScale="1" pageWidth="1100" pageHeight="850" math="0" shadow="0">
      <root>
        <mxCell id="0" />
        <mxCell id="1" parent="0" />
        <mxCell id="HPB7PZ13WReq7d0iLSrL-1" value="" style="whiteSpace=wrap;html=1;rounded=0;shadow=0;labelBackgroundColor=none;strokeWidth=1;fontFamily=Verdana;fontSize=12;align=center;comic=1;" vertex="1" parent="1">
          <mxGeometry x="1120" y="12.5" width="1060" height="877.5" as="geometry" />
        </mxCell>
        <mxCell id="HPB7PZ13WReq7d0iLSrL-2" value="" style="whiteSpace=wrap;html=1;rounded=0;shadow=0;labelBackgroundColor=none;strokeWidth=1;fillColor=none;fontFamily=Verdana;fontSize=12;align=center;comic=1;" vertex="1" parent="1">
          <mxGeometry x="1150" y="40" width="1020" height="80" as="geometry" />
        </mxCell>
        <mxCell id="HPB7PZ13WReq7d0iLSrL-3" value="LOGO" style="whiteSpace=wrap;html=1;rounded=0;shadow=0;labelBackgroundColor=none;strokeWidth=1;fontFamily=Verdana;fontSize=28;align=center;comic=1;" vertex="1" parent="1">
          <mxGeometry x="1170" y="55" width="190" height="50" as="geometry" />
        </mxCell>
        <mxCell id="HPB7PZ13WReq7d0iLSrL-4" value="Home" style="text;html=1;strokeColor=none;fillColor=none;align=center;verticalAlign=middle;whiteSpace=wrap;rounded=0;fontSize=18;" vertex="1" parent="1">
          <mxGeometry x="1560" y="65" width="80" height="30" as="geometry" />
        </mxCell>
        <mxCell id="HPB7PZ13WReq7d0iLSrL-5" value="Ground Status" style="text;html=1;strokeColor=none;fillColor=none;align=center;verticalAlign=middle;whiteSpace=wrap;rounded=0;fontSize=18;" vertex="1" parent="1">
          <mxGeometry x="1660" y="65" width="130" height="30" as="geometry" />
        </mxCell>
        <mxCell id="HPB7PZ13WReq7d0iLSrL-6" value="&lt;font style=&quot;font-size: 18px;&quot;&gt;Login&lt;/font&gt;" style="whiteSpace=wrap;html=1;rounded=0;shadow=0;labelBackgroundColor=none;strokeWidth=1;fontFamily=Verdana;fontSize=28;align=center;comic=1;" vertex="1" parent="1">
          <mxGeometry x="2060" y="65" width="70" height="40" as="geometry" />
        </mxCell>
        <mxCell id="HPB7PZ13WReq7d0iLSrL-7" value="" style="whiteSpace=wrap;html=1;rounded=0;shadow=0;labelBackgroundColor=none;strokeWidth=1;fillColor=none;fontFamily=Verdana;fontSize=12;align=center;comic=1;" vertex="1" parent="1">
          <mxGeometry x="1360" y="165" width="550" height="665" as="geometry" />
        </mxCell>
        <mxCell id="HPB7PZ13WReq7d0iLSrL-8" value="&lt;font style=&quot;font-size: 25px;&quot;&gt;&lt;b&gt;Fill up the form&lt;/b&gt;&lt;/font&gt;" style="text;html=1;strokeColor=none;fillColor=none;align=center;verticalAlign=middle;whiteSpace=wrap;rounded=0;fontSize=19;" vertex="1" parent="1">
          <mxGeometry x="1525" y="210" width="220" height="30" as="geometry" />
        </mxCell>
        <mxCell id="HPB7PZ13WReq7d0iLSrL-9" value="Name:" style="text;html=1;strokeColor=none;fillColor=none;align=center;verticalAlign=middle;whiteSpace=wrap;rounded=0;fontSize=19;" vertex="1" parent="1">
          <mxGeometry x="1390" y="284.5" width="70" height="30" as="geometry" />
        </mxCell>
        <mxCell id="HPB7PZ13WReq7d0iLSrL-10" value="Email:" style="text;html=1;strokeColor=none;fillColor=none;align=center;verticalAlign=middle;whiteSpace=wrap;rounded=0;fontSize=19;" vertex="1" parent="1">
          <mxGeometry x="1390" y="365.5" width="70" height="30" as="geometry" />
        </mxCell>
        <mxCell id="HPB7PZ13WReq7d0iLSrL-11" value="" style="rounded=1;whiteSpace=wrap;html=1;fontSize=19;" vertex="1" parent="1">
          <mxGeometry x="1500" y="279" width="340" height="41" as="geometry" />
        </mxCell>
        <mxCell id="HPB7PZ13WReq7d0iLSrL-12" value="" style="rounded=1;whiteSpace=wrap;html=1;fontSize=19;" vertex="1" parent="1">
          <mxGeometry x="1500" y="360" width="340" height="41" as="geometry" />
        </mxCell>
        <mxCell id="YNiQLhw4nnHLkHEzhiFO-1" value="Phone No:" style="text;html=1;strokeColor=none;fillColor=none;align=center;verticalAlign=middle;whiteSpace=wrap;rounded=0;fontSize=19;" vertex="1" parent="1">
          <mxGeometry x="1395" y="444.5" width="100" height="30" as="geometry" />
        </mxCell>
        <mxCell id="YNiQLhw4nnHLkHEzhiFO-2" value="Date:" style="text;html=1;strokeColor=none;fillColor=none;align=center;verticalAlign=middle;whiteSpace=wrap;rounded=0;fontSize=19;" vertex="1" parent="1">
          <mxGeometry x="1390" y="530" width="60" height="30" as="geometry" />
        </mxCell>
        <mxCell id="YNiQLhw4nnHLkHEzhiFO-3" value="Time:&amp;nbsp;" style="text;html=1;strokeColor=none;fillColor=none;align=center;verticalAlign=middle;whiteSpace=wrap;rounded=0;fontSize=19;" vertex="1" parent="1">
          <mxGeometry x="1390" y="600" width="70" height="30" as="geometry" />
        </mxCell>
        <mxCell id="YNiQLhw4nnHLkHEzhiFO-4" value="Day/Night" style="text;html=1;strokeColor=none;fillColor=none;align=center;verticalAlign=middle;whiteSpace=wrap;rounded=0;fontSize=19;" vertex="1" parent="1">
          <mxGeometry x="1390" y="680" width="100" height="30" as="geometry" />
        </mxCell>
        <mxCell id="YNiQLhw4nnHLkHEzhiFO-5" value="" style="rounded=1;whiteSpace=wrap;html=1;fontSize=19;" vertex="1" parent="1">
          <mxGeometry x="1500" y="439" width="340" height="41" as="geometry" />
        </mxCell>
        <mxCell id="YNiQLhw4nnHLkHEzhiFO-6" value="" style="rounded=1;whiteSpace=wrap;html=1;fontSize=19;" vertex="1" parent="1">
          <mxGeometry x="1500" y="519" width="340" height="41" as="geometry" />
        </mxCell>
        <mxCell id="YNiQLhw4nnHLkHEzhiFO-7" value="" style="rounded=1;whiteSpace=wrap;html=1;fontSize=19;" vertex="1" parent="1">
          <mxGeometry x="1500" y="600" width="340" height="41" as="geometry" />
        </mxCell>
        <mxCell id="YNiQLhw4nnHLkHEzhiFO-8" value="" style="rounded=1;whiteSpace=wrap;html=1;fontSize=19;" vertex="1" parent="1">
          <mxGeometry x="1500" y="680" width="340" height="41" as="geometry" />
        </mxCell>
        <mxCell id="YNiQLhw4nnHLkHEzhiFO-9" value="" style="rounded=1;whiteSpace=wrap;html=1;fontSize=19;" vertex="1" parent="1">
          <mxGeometry x="1395" y="750" width="485" height="50" as="geometry" />
        </mxCell>
        <mxCell id="YNiQLhw4nnHLkHEzhiFO-10" value="Submit" style="text;html=1;strokeColor=none;fillColor=none;align=center;verticalAlign=middle;whiteSpace=wrap;rounded=0;fontSize=19;" vertex="1" parent="1">
          <mxGeometry x="1605" y="760" width="60" height="30" as="geometry" />
        </mxCell>
      </root>
    </mxGraphModel>
  </diagram>
  <diagram id="uCT6y0OiSm-9HevpHgIg" name="Admin Confirmation">
    <mxGraphModel dx="638" dy="1022" grid="1" gridSize="10" guides="1" tooltips="1" connect="1" arrows="1" fold="1" page="1" pageScale="1" pageWidth="1100" pageHeight="850" math="0" shadow="0">
      <root>
        <mxCell id="0" />
        <mxCell id="1" parent="0" />
        <mxCell id="DFTsryIgwoBuVCMV7Zue-1" value="" style="line;strokeWidth=1;html=1;rounded=0;shadow=0;labelBackgroundColor=none;fillColor=none;fontFamily=Verdana;fontSize=14;fontColor=#000000;align=center;comic=1;" vertex="1" parent="1">
          <mxGeometry x="1130" y="755.5" width="1060" height="10" as="geometry" />
        </mxCell>
        <mxCell id="DFTsryIgwoBuVCMV7Zue-2" value="" style="whiteSpace=wrap;html=1;rounded=0;shadow=0;labelBackgroundColor=none;strokeWidth=1;fontFamily=Verdana;fontSize=12;align=center;comic=1;" vertex="1" parent="1">
          <mxGeometry x="1130" y="8" width="1060" height="834.5" as="geometry" />
        </mxCell>
        <mxCell id="DFTsryIgwoBuVCMV7Zue-3" value="" style="whiteSpace=wrap;html=1;rounded=0;shadow=0;labelBackgroundColor=none;strokeWidth=1;fillColor=none;fontFamily=Verdana;fontSize=12;align=center;comic=1;" vertex="1" parent="1">
          <mxGeometry x="1150" y="35.5" width="1020" height="80" as="geometry" />
        </mxCell>
        <mxCell id="DFTsryIgwoBuVCMV7Zue-4" value="LOGO" style="whiteSpace=wrap;html=1;rounded=0;shadow=0;labelBackgroundColor=none;strokeWidth=1;fontFamily=Verdana;fontSize=28;align=center;comic=1;" vertex="1" parent="1">
          <mxGeometry x="1160" y="50.5" width="190" height="50" as="geometry" />
        </mxCell>
        <mxCell id="DFTsryIgwoBuVCMV7Zue-5" value="Home" style="text;html=1;strokeColor=none;fillColor=none;align=center;verticalAlign=middle;whiteSpace=wrap;rounded=0;fontSize=18;" vertex="1" parent="1">
          <mxGeometry x="1550" y="60.5" width="80" height="30" as="geometry" />
        </mxCell>
        <mxCell id="DFTsryIgwoBuVCMV7Zue-6" value="Ground Status" style="text;html=1;strokeColor=none;fillColor=none;align=center;verticalAlign=middle;whiteSpace=wrap;rounded=0;fontSize=18;" vertex="1" parent="1">
          <mxGeometry x="1660" y="60.5" width="130" height="30" as="geometry" />
        </mxCell>
        <mxCell id="DFTsryIgwoBuVCMV7Zue-7" value="&lt;font style=&quot;font-size: 18px;&quot;&gt;Log out&lt;/font&gt;" style="whiteSpace=wrap;html=1;rounded=0;shadow=0;labelBackgroundColor=none;strokeWidth=1;fontFamily=Verdana;fontSize=28;align=center;comic=1;" vertex="1" parent="1">
          <mxGeometry x="2070" y="55.5" width="70" height="40" as="geometry" />
        </mxCell>
        <mxCell id="DFTsryIgwoBuVCMV7Zue-8" value="" style="rounded=0;whiteSpace=wrap;html=1;fontSize=20;" vertex="1" parent="1">
          <mxGeometry x="1220" y="220.5" width="410" height="475" as="geometry" />
        </mxCell>
        <mxCell id="DFTsryIgwoBuVCMV7Zue-9" value="Name:" style="text;html=1;strokeColor=none;fillColor=none;align=center;verticalAlign=middle;whiteSpace=wrap;rounded=0;fontSize=19;" vertex="1" parent="1">
          <mxGeometry x="1250" y="270.5" width="70" height="30" as="geometry" />
        </mxCell>
        <mxCell id="DFTsryIgwoBuVCMV7Zue-10" value="Payment:" style="text;html=1;strokeColor=none;fillColor=none;align=center;verticalAlign=middle;whiteSpace=wrap;rounded=0;fontSize=19;" vertex="1" parent="1">
          <mxGeometry x="1260" y="545.5" width="75" height="30" as="geometry" />
        </mxCell>
        <mxCell id="DFTsryIgwoBuVCMV7Zue-11" value="Email:" style="text;html=1;strokeColor=none;fillColor=none;align=center;verticalAlign=middle;whiteSpace=wrap;rounded=0;fontSize=19;" vertex="1" parent="1">
          <mxGeometry x="1250" y="325.5" width="70" height="30" as="geometry" />
        </mxCell>
        <mxCell id="DFTsryIgwoBuVCMV7Zue-12" value="Date:" style="text;html=1;strokeColor=none;fillColor=none;align=center;verticalAlign=middle;whiteSpace=wrap;rounded=0;fontSize=19;" vertex="1" parent="1">
          <mxGeometry x="1250" y="378.5" width="70" height="30" as="geometry" />
        </mxCell>
        <mxCell id="DFTsryIgwoBuVCMV7Zue-13" value="Time:" style="text;html=1;strokeColor=none;fillColor=none;align=center;verticalAlign=middle;whiteSpace=wrap;rounded=0;fontSize=19;" vertex="1" parent="1">
          <mxGeometry x="1250" y="434.5" width="70" height="30" as="geometry" />
        </mxCell>
        <mxCell id="DFTsryIgwoBuVCMV7Zue-14" value="Status:" style="text;html=1;strokeColor=none;fillColor=none;align=center;verticalAlign=middle;whiteSpace=wrap;rounded=0;fontSize=19;" vertex="1" parent="1">
          <mxGeometry x="1260" y="490.5" width="60" height="30" as="geometry" />
        </mxCell>
        <mxCell id="DFTsryIgwoBuVCMV7Zue-15" value="Username" style="text;html=1;strokeColor=none;fillColor=none;align=center;verticalAlign=middle;whiteSpace=wrap;rounded=0;fontSize=19;" vertex="1" parent="1">
          <mxGeometry x="1350" y="270.5" width="90" height="30" as="geometry" />
        </mxCell>
        <mxCell id="DFTsryIgwoBuVCMV7Zue-16" value="abc12@gmail.com" style="text;html=1;strokeColor=none;fillColor=none;align=center;verticalAlign=middle;whiteSpace=wrap;rounded=0;fontSize=19;" vertex="1" parent="1">
          <mxGeometry x="1350" y="325.5" width="170" height="30" as="geometry" />
        </mxCell>
        <mxCell id="DFTsryIgwoBuVCMV7Zue-17" value="10/01/2022" style="text;html=1;strokeColor=none;fillColor=none;align=center;verticalAlign=middle;whiteSpace=wrap;rounded=0;fontSize=19;" vertex="1" parent="1">
          <mxGeometry x="1350" y="378.5" width="100" height="30" as="geometry" />
        </mxCell>
        <mxCell id="DFTsryIgwoBuVCMV7Zue-18" value="10:00 am" style="text;html=1;strokeColor=none;fillColor=none;align=center;verticalAlign=middle;whiteSpace=wrap;rounded=0;fontSize=19;" vertex="1" parent="1">
          <mxGeometry x="1345" y="434.5" width="95" height="30" as="geometry" />
        </mxCell>
        <mxCell id="DFTsryIgwoBuVCMV7Zue-19" value="Booked" style="text;html=1;strokeColor=none;fillColor=none;align=center;verticalAlign=middle;whiteSpace=wrap;rounded=0;fontSize=19;" vertex="1" parent="1">
          <mxGeometry x="1350" y="490.5" width="80" height="30" as="geometry" />
        </mxCell>
        <mxCell id="DFTsryIgwoBuVCMV7Zue-20" value="Not Paid" style="text;html=1;strokeColor=none;fillColor=none;align=center;verticalAlign=middle;whiteSpace=wrap;rounded=0;fontSize=19;" vertex="1" parent="1">
          <mxGeometry x="1352.5" y="545.5" width="80" height="30" as="geometry" />
        </mxCell>
        <mxCell id="DFTsryIgwoBuVCMV7Zue-21" value="Confirm" style="rounded=1;whiteSpace=wrap;html=1;fontSize=20;" vertex="1" parent="1">
          <mxGeometry x="1238" y="605.5" width="102" height="50" as="geometry" />
        </mxCell>
        <mxCell id="DFTsryIgwoBuVCMV7Zue-22" value="Reject" style="rounded=1;whiteSpace=wrap;html=1;fontSize=20;" vertex="1" parent="1">
          <mxGeometry x="1370" y="605.5" width="102" height="50" as="geometry" />
        </mxCell>
        <mxCell id="DFTsryIgwoBuVCMV7Zue-23" value="Paid" style="rounded=1;whiteSpace=wrap;html=1;fontSize=20;" vertex="1" parent="1">
          <mxGeometry x="1500" y="605.5" width="102" height="50" as="geometry" />
        </mxCell>
        <mxCell id="DFTsryIgwoBuVCMV7Zue-24" value="" style="rounded=0;whiteSpace=wrap;html=1;fontSize=20;" vertex="1" parent="1">
          <mxGeometry x="1690" y="220.5" width="410" height="475" as="geometry" />
        </mxCell>
        <mxCell id="DFTsryIgwoBuVCMV7Zue-25" value="Name:" style="text;html=1;strokeColor=none;fillColor=none;align=center;verticalAlign=middle;whiteSpace=wrap;rounded=0;fontSize=19;" vertex="1" parent="1">
          <mxGeometry x="1720" y="268" width="70" height="30" as="geometry" />
        </mxCell>
        <mxCell id="DFTsryIgwoBuVCMV7Zue-26" value="Email:" style="text;html=1;strokeColor=none;fillColor=none;align=center;verticalAlign=middle;whiteSpace=wrap;rounded=0;fontSize=19;" vertex="1" parent="1">
          <mxGeometry x="1720" y="325.5" width="70" height="30" as="geometry" />
        </mxCell>
        <mxCell id="DFTsryIgwoBuVCMV7Zue-27" value="Date:" style="text;html=1;strokeColor=none;fillColor=none;align=center;verticalAlign=middle;whiteSpace=wrap;rounded=0;fontSize=19;" vertex="1" parent="1">
          <mxGeometry x="1720" y="378.5" width="70" height="30" as="geometry" />
        </mxCell>
        <mxCell id="DFTsryIgwoBuVCMV7Zue-28" value="Time:" style="text;html=1;strokeColor=none;fillColor=none;align=center;verticalAlign=middle;whiteSpace=wrap;rounded=0;fontSize=19;" vertex="1" parent="1">
          <mxGeometry x="1720" y="433.5" width="70" height="30" as="geometry" />
        </mxCell>
        <mxCell id="DFTsryIgwoBuVCMV7Zue-29" value="Status:" style="text;html=1;strokeColor=none;fillColor=none;align=center;verticalAlign=middle;whiteSpace=wrap;rounded=0;fontSize=19;" vertex="1" parent="1">
          <mxGeometry x="1735" y="490.5" width="60" height="30" as="geometry" />
        </mxCell>
        <mxCell id="DFTsryIgwoBuVCMV7Zue-30" value="Payment:" style="text;html=1;strokeColor=none;fillColor=none;align=center;verticalAlign=middle;whiteSpace=wrap;rounded=0;fontSize=19;" vertex="1" parent="1">
          <mxGeometry x="1735" y="545.5" width="75" height="30" as="geometry" />
        </mxCell>
        <mxCell id="DFTsryIgwoBuVCMV7Zue-31" value="Username" style="text;html=1;strokeColor=none;fillColor=none;align=center;verticalAlign=middle;whiteSpace=wrap;rounded=0;fontSize=19;" vertex="1" parent="1">
          <mxGeometry x="1830" y="268" width="90" height="30" as="geometry" />
        </mxCell>
        <mxCell id="DFTsryIgwoBuVCMV7Zue-32" value="abc12@gmail.com" style="text;html=1;strokeColor=none;fillColor=none;align=center;verticalAlign=middle;whiteSpace=wrap;rounded=0;fontSize=19;" vertex="1" parent="1">
          <mxGeometry x="1830" y="325.5" width="160" height="30" as="geometry" />
        </mxCell>
        <mxCell id="DFTsryIgwoBuVCMV7Zue-33" value="10/01/2022" style="text;html=1;strokeColor=none;fillColor=none;align=center;verticalAlign=middle;whiteSpace=wrap;rounded=0;fontSize=19;" vertex="1" parent="1">
          <mxGeometry x="1830" y="378.5" width="100" height="30" as="geometry" />
        </mxCell>
        <mxCell id="DFTsryIgwoBuVCMV7Zue-34" value="10:00 am" style="text;html=1;strokeColor=none;fillColor=none;align=center;verticalAlign=middle;whiteSpace=wrap;rounded=0;fontSize=19;" vertex="1" parent="1">
          <mxGeometry x="1832.5" y="433.5" width="95" height="30" as="geometry" />
        </mxCell>
        <mxCell id="DFTsryIgwoBuVCMV7Zue-35" value="Booked" style="text;html=1;strokeColor=none;fillColor=none;align=center;verticalAlign=middle;whiteSpace=wrap;rounded=0;fontSize=19;" vertex="1" parent="1">
          <mxGeometry x="1840" y="490.5" width="80" height="30" as="geometry" />
        </mxCell>
        <mxCell id="DFTsryIgwoBuVCMV7Zue-36" value="Not Paid" style="text;html=1;strokeColor=none;fillColor=none;align=center;verticalAlign=middle;whiteSpace=wrap;rounded=0;fontSize=19;" vertex="1" parent="1">
          <mxGeometry x="1847.5" y="545.5" width="80" height="30" as="geometry" />
        </mxCell>
        <mxCell id="DFTsryIgwoBuVCMV7Zue-37" value="Confirm" style="rounded=1;whiteSpace=wrap;html=1;fontSize=20;" vertex="1" parent="1">
          <mxGeometry x="1704" y="605.5" width="102" height="50" as="geometry" />
        </mxCell>
        <mxCell id="DFTsryIgwoBuVCMV7Zue-38" value="Reject" style="rounded=1;whiteSpace=wrap;html=1;fontSize=20;" vertex="1" parent="1">
          <mxGeometry x="1836.5" y="605.5" width="102" height="50" as="geometry" />
        </mxCell>
        <mxCell id="DFTsryIgwoBuVCMV7Zue-39" value="Paid" style="rounded=1;whiteSpace=wrap;html=1;fontSize=20;" vertex="1" parent="1">
          <mxGeometry x="1968" y="605.5" width="102" height="50" as="geometry" />
        </mxCell>
        <mxCell id="DFTsryIgwoBuVCMV7Zue-40" value="Copyright 2022 . Group 3" style="text;html=1;strokeColor=none;fillColor=none;align=center;verticalAlign=middle;whiteSpace=wrap;rounded=0;fontSize=20;" vertex="1" parent="1">
          <mxGeometry x="1516" y="795.5" width="290" height="30" as="geometry" />
        </mxCell>
        <mxCell id="2QO2pDfRU5QCkr0a_5QO-1" value="" style="line;strokeWidth=1;html=1;rounded=0;shadow=0;labelBackgroundColor=none;fillColor=none;fontFamily=Verdana;fontSize=14;fontColor=#000000;align=center;comic=1;" vertex="1" parent="1">
          <mxGeometry x="1130" y="755.5" width="1060" height="10" as="geometry" />
        </mxCell>
      </root>
    </mxGraphModel>
  </diagram>
  <diagram id="5JogYrarqYxy9hwaWI9X" name="Admin Confirmation Page">
    <mxGraphModel dx="638" dy="1022" grid="1" gridSize="10" guides="1" tooltips="1" connect="1" arrows="1" fold="1" page="1" pageScale="1" pageWidth="1100" pageHeight="850" math="0" shadow="0">
      <root>
        <mxCell id="0" />
        <mxCell id="1" parent="0" />
        <mxCell id="T6Y3A7xMNu0vm86AUCAh-6" value="" style="whiteSpace=wrap;html=1;rounded=0;shadow=0;labelBackgroundColor=none;strokeWidth=1;fontFamily=Verdana;fontSize=12;align=center;comic=1;" vertex="1" parent="1">
          <mxGeometry x="1120" y="30" width="1060" height="790" as="geometry" />
        </mxCell>
        <mxCell id="T6Y3A7xMNu0vm86AUCAh-7" value="" style="rounded=0;whiteSpace=wrap;html=1;fontSize=20;" vertex="1" parent="1">
          <mxGeometry x="1228" y="210" width="410" height="475" as="geometry" />
        </mxCell>
        <mxCell id="T6Y3A7xMNu0vm86AUCAh-8" value="Name:" style="text;html=1;strokeColor=none;fillColor=none;align=center;verticalAlign=middle;whiteSpace=wrap;rounded=0;fontSize=19;" vertex="1" parent="1">
          <mxGeometry x="1260" y="255" width="70" height="30" as="geometry" />
        </mxCell>
        <mxCell id="T6Y3A7xMNu0vm86AUCAh-9" value="Email:" style="text;html=1;strokeColor=none;fillColor=none;align=center;verticalAlign=middle;whiteSpace=wrap;rounded=0;fontSize=19;" vertex="1" parent="1">
          <mxGeometry x="1260" y="310" width="70" height="30" as="geometry" />
        </mxCell>
        <mxCell id="T6Y3A7xMNu0vm86AUCAh-10" value="Date:" style="text;html=1;strokeColor=none;fillColor=none;align=center;verticalAlign=middle;whiteSpace=wrap;rounded=0;fontSize=19;" vertex="1" parent="1">
          <mxGeometry x="1265" y="365" width="60" height="30" as="geometry" />
        </mxCell>
        <mxCell id="T6Y3A7xMNu0vm86AUCAh-11" value="Time:" style="text;html=1;strokeColor=none;fillColor=none;align=center;verticalAlign=middle;whiteSpace=wrap;rounded=0;fontSize=19;" vertex="1" parent="1">
          <mxGeometry x="1265" y="420" width="60" height="30" as="geometry" />
        </mxCell>
        <mxCell id="T6Y3A7xMNu0vm86AUCAh-12" value="Status:" style="text;html=1;strokeColor=none;fillColor=none;align=center;verticalAlign=middle;whiteSpace=wrap;rounded=0;fontSize=19;" vertex="1" parent="1">
          <mxGeometry x="1270" y="470" width="60" height="30" as="geometry" />
        </mxCell>
        <mxCell id="T6Y3A7xMNu0vm86AUCAh-13" value="Payment:" style="text;html=1;strokeColor=none;fillColor=none;align=center;verticalAlign=middle;whiteSpace=wrap;rounded=0;fontSize=19;" vertex="1" parent="1">
          <mxGeometry x="1270" y="530" width="75" height="30" as="geometry" />
        </mxCell>
        <mxCell id="T6Y3A7xMNu0vm86AUCAh-14" value="UserName" style="text;html=1;strokeColor=none;fillColor=none;align=center;verticalAlign=middle;whiteSpace=wrap;rounded=0;fontSize=19;" vertex="1" parent="1">
          <mxGeometry x="1365" y="255" width="100" height="30" as="geometry" />
        </mxCell>
        <mxCell id="T6Y3A7xMNu0vm86AUCAh-15" value="abcd12gmail.com" style="text;html=1;strokeColor=none;fillColor=none;align=center;verticalAlign=middle;whiteSpace=wrap;rounded=0;fontSize=19;" vertex="1" parent="1">
          <mxGeometry x="1365" y="310" width="155" height="30" as="geometry" />
        </mxCell>
        <mxCell id="T6Y3A7xMNu0vm86AUCAh-16" value="10/01/2022" style="text;html=1;strokeColor=none;fillColor=none;align=center;verticalAlign=middle;whiteSpace=wrap;rounded=0;fontSize=19;" vertex="1" parent="1">
          <mxGeometry x="1365" y="365" width="95" height="30" as="geometry" />
        </mxCell>
        <mxCell id="T6Y3A7xMNu0vm86AUCAh-17" value="10:00 am" style="text;html=1;strokeColor=none;fillColor=none;align=center;verticalAlign=middle;whiteSpace=wrap;rounded=0;fontSize=19;" vertex="1" parent="1">
          <mxGeometry x="1365" y="420" width="85" height="30" as="geometry" />
        </mxCell>
        <mxCell id="T6Y3A7xMNu0vm86AUCAh-18" value="Booked" style="text;html=1;strokeColor=none;fillColor=none;align=center;verticalAlign=middle;whiteSpace=wrap;rounded=0;fontSize=19;" vertex="1" parent="1">
          <mxGeometry x="1365" y="470" width="85" height="30" as="geometry" />
        </mxCell>
        <mxCell id="T6Y3A7xMNu0vm86AUCAh-19" value="Paid" style="text;html=1;strokeColor=none;fillColor=none;align=center;verticalAlign=middle;whiteSpace=wrap;rounded=0;fontSize=19;" vertex="1" parent="1">
          <mxGeometry x="1372.5" y="530" width="47.5" height="30" as="geometry" />
        </mxCell>
        <mxCell id="T6Y3A7xMNu0vm86AUCAh-20" value="Confirm" style="rounded=1;whiteSpace=wrap;html=1;fontSize=20;" vertex="1" parent="1">
          <mxGeometry x="1250" y="600" width="102" height="50" as="geometry" />
        </mxCell>
        <mxCell id="T6Y3A7xMNu0vm86AUCAh-21" value="Reject" style="rounded=1;whiteSpace=wrap;html=1;fontSize=20;" vertex="1" parent="1">
          <mxGeometry x="1382" y="600" width="102" height="50" as="geometry" />
        </mxCell>
        <mxCell id="T6Y3A7xMNu0vm86AUCAh-22" value="Paid" style="rounded=1;whiteSpace=wrap;html=1;fontSize=20;" vertex="1" parent="1">
          <mxGeometry x="1510" y="600" width="102" height="50" as="geometry" />
        </mxCell>
        <mxCell id="T6Y3A7xMNu0vm86AUCAh-23" value="" style="rounded=0;whiteSpace=wrap;html=1;fontSize=20;" vertex="1" parent="1">
          <mxGeometry x="1695" y="210" width="410" height="475" as="geometry" />
        </mxCell>
        <mxCell id="T6Y3A7xMNu0vm86AUCAh-24" value="Name:" style="text;html=1;strokeColor=none;fillColor=none;align=center;verticalAlign=middle;whiteSpace=wrap;rounded=0;fontSize=19;" vertex="1" parent="1">
          <mxGeometry x="1727.5" y="255" width="70" height="30" as="geometry" />
        </mxCell>
        <mxCell id="T6Y3A7xMNu0vm86AUCAh-25" value="Email:" style="text;html=1;strokeColor=none;fillColor=none;align=center;verticalAlign=middle;whiteSpace=wrap;rounded=0;fontSize=19;" vertex="1" parent="1">
          <mxGeometry x="1726" y="310" width="70" height="30" as="geometry" />
        </mxCell>
        <mxCell id="T6Y3A7xMNu0vm86AUCAh-26" value="Date:" style="text;html=1;strokeColor=none;fillColor=none;align=center;verticalAlign=middle;whiteSpace=wrap;rounded=0;fontSize=19;" vertex="1" parent="1">
          <mxGeometry x="1730" y="365" width="60" height="30" as="geometry" />
        </mxCell>
        <mxCell id="T6Y3A7xMNu0vm86AUCAh-27" value="Time:" style="text;html=1;strokeColor=none;fillColor=none;align=center;verticalAlign=middle;whiteSpace=wrap;rounded=0;fontSize=19;" vertex="1" parent="1">
          <mxGeometry x="1730" y="420" width="60" height="30" as="geometry" />
        </mxCell>
        <mxCell id="T6Y3A7xMNu0vm86AUCAh-28" value="Status:" style="text;html=1;strokeColor=none;fillColor=none;align=center;verticalAlign=middle;whiteSpace=wrap;rounded=0;fontSize=19;" vertex="1" parent="1">
          <mxGeometry x="1736" y="470" width="60" height="30" as="geometry" />
        </mxCell>
        <mxCell id="T6Y3A7xMNu0vm86AUCAh-29" value="Payment:" style="text;html=1;strokeColor=none;fillColor=none;align=center;verticalAlign=middle;whiteSpace=wrap;rounded=0;fontSize=19;" vertex="1" parent="1">
          <mxGeometry x="1736" y="530" width="75" height="30" as="geometry" />
        </mxCell>
        <mxCell id="T6Y3A7xMNu0vm86AUCAh-30" value="UserName" style="text;html=1;strokeColor=none;fillColor=none;align=center;verticalAlign=middle;whiteSpace=wrap;rounded=0;fontSize=19;" vertex="1" parent="1">
          <mxGeometry x="1830" y="255" width="100" height="30" as="geometry" />
        </mxCell>
        <mxCell id="T6Y3A7xMNu0vm86AUCAh-31" value="abcd12gmail.com" style="text;html=1;strokeColor=none;fillColor=none;align=center;verticalAlign=middle;whiteSpace=wrap;rounded=0;fontSize=19;" vertex="1" parent="1">
          <mxGeometry x="1830" y="310" width="155" height="30" as="geometry" />
        </mxCell>
        <mxCell id="T6Y3A7xMNu0vm86AUCAh-32" value="10/01/2022" style="text;html=1;strokeColor=none;fillColor=none;align=center;verticalAlign=middle;whiteSpace=wrap;rounded=0;fontSize=19;" vertex="1" parent="1">
          <mxGeometry x="1833.13" y="365" width="95" height="30" as="geometry" />
        </mxCell>
        <mxCell id="T6Y3A7xMNu0vm86AUCAh-33" value="10:00 am" style="text;html=1;strokeColor=none;fillColor=none;align=center;verticalAlign=middle;whiteSpace=wrap;rounded=0;fontSize=19;" vertex="1" parent="1">
          <mxGeometry x="1830" y="420" width="85" height="30" as="geometry" />
        </mxCell>
        <mxCell id="T6Y3A7xMNu0vm86AUCAh-34" value="Booked" style="text;html=1;strokeColor=none;fillColor=none;align=center;verticalAlign=middle;whiteSpace=wrap;rounded=0;fontSize=19;" vertex="1" parent="1">
          <mxGeometry x="1825" y="470" width="85" height="30" as="geometry" />
        </mxCell>
        <mxCell id="T6Y3A7xMNu0vm86AUCAh-35" value="Not Paid" style="text;html=1;strokeColor=none;fillColor=none;align=center;verticalAlign=middle;whiteSpace=wrap;rounded=0;fontSize=19;" vertex="1" parent="1">
          <mxGeometry x="1828.13" y="530" width="81.87" height="30" as="geometry" />
        </mxCell>
        <mxCell id="T6Y3A7xMNu0vm86AUCAh-36" value="Confirm" style="rounded=1;whiteSpace=wrap;html=1;fontSize=20;" vertex="1" parent="1">
          <mxGeometry x="1722.5" y="600" width="102" height="50" as="geometry" />
        </mxCell>
        <mxCell id="T6Y3A7xMNu0vm86AUCAh-37" value="Reject" style="rounded=1;whiteSpace=wrap;html=1;fontSize=20;" vertex="1" parent="1">
          <mxGeometry x="1849" y="600" width="102" height="50" as="geometry" />
        </mxCell>
        <mxCell id="T6Y3A7xMNu0vm86AUCAh-38" value="Paid" style="rounded=1;whiteSpace=wrap;html=1;fontSize=20;" vertex="1" parent="1">
          <mxGeometry x="1980" y="600" width="102" height="50" as="geometry" />
        </mxCell>
        <mxCell id="T6Y3A7xMNu0vm86AUCAh-39" value="" style="line;strokeWidth=1;html=1;rounded=0;shadow=0;labelBackgroundColor=none;fillColor=none;fontFamily=Verdana;fontSize=14;fontColor=#000000;align=center;comic=1;" vertex="1" parent="1">
          <mxGeometry x="1130" y="730" width="1060" height="10" as="geometry" />
        </mxCell>
        <mxCell id="SWmUBUdOmAx-JatRz4pk-1" value="Copyright 2022 . Group 3" style="text;html=1;strokeColor=none;fillColor=none;align=center;verticalAlign=middle;whiteSpace=wrap;rounded=0;fontSize=20;" vertex="1" parent="1">
          <mxGeometry x="1515" y="770" width="290" height="30" as="geometry" />
        </mxCell>
        <mxCell id="wPDXAqu6B2bsidhxTikW-6" value="" style="whiteSpace=wrap;html=1;rounded=0;shadow=0;labelBackgroundColor=none;strokeWidth=1;fillColor=none;fontFamily=Verdana;fontSize=12;align=center;comic=1;" vertex="1" parent="1">
          <mxGeometry x="1140" y="50" width="1020" height="80" as="geometry" />
        </mxCell>
        <mxCell id="wPDXAqu6B2bsidhxTikW-7" value="LOGO" style="whiteSpace=wrap;html=1;rounded=0;shadow=0;labelBackgroundColor=none;strokeWidth=1;fontFamily=Verdana;fontSize=28;align=center;comic=1;" vertex="1" parent="1">
          <mxGeometry x="1160" y="60" width="190" height="50" as="geometry" />
        </mxCell>
        <mxCell id="wPDXAqu6B2bsidhxTikW-8" value="Home" style="text;html=1;strokeColor=none;fillColor=none;align=center;verticalAlign=middle;whiteSpace=wrap;rounded=0;fontSize=18;" vertex="1" parent="1">
          <mxGeometry x="1530" y="70" width="80" height="30" as="geometry" />
        </mxCell>
        <mxCell id="wPDXAqu6B2bsidhxTikW-9" value="Ground Status" style="text;html=1;strokeColor=none;fillColor=none;align=center;verticalAlign=middle;whiteSpace=wrap;rounded=0;fontSize=18;" vertex="1" parent="1">
          <mxGeometry x="1660" y="70" width="130" height="30" as="geometry" />
        </mxCell>
        <mxCell id="wPDXAqu6B2bsidhxTikW-10" value="&lt;font style=&quot;font-size: 18px;&quot;&gt;Log out&lt;/font&gt;" style="whiteSpace=wrap;html=1;rounded=0;shadow=0;labelBackgroundColor=none;strokeWidth=1;fontFamily=Verdana;fontSize=28;align=center;comic=1;" vertex="1" parent="1">
          <mxGeometry x="2060" y="65" width="70" height="40" as="geometry" />
        </mxCell>
      </root>
    </mxGraphModel>
  </diagram>
  <diagram id="Am2b8oSPde8Tqsqz4W-n" name="Payment Form">
    <mxGraphModel dx="1134" dy="1314" grid="1" gridSize="10" guides="1" tooltips="1" connect="1" arrows="1" fold="1" page="1" pageScale="1" pageWidth="1100" pageHeight="850" math="0" shadow="0">
      <root>
        <mxCell id="0" />
        <mxCell id="1" parent="0" />
        <mxCell id="_4Wk7NfBcytcVgkIfaO7-1" value="" style="whiteSpace=wrap;html=1;rounded=0;shadow=0;labelBackgroundColor=none;strokeWidth=1;fontFamily=Verdana;fontSize=12;align=center;comic=1;" vertex="1" parent="1">
          <mxGeometry x="1120" y="40" width="1060" height="730" as="geometry" />
        </mxCell>
        <mxCell id="_4Wk7NfBcytcVgkIfaO7-2" value="" style="whiteSpace=wrap;html=1;rounded=0;shadow=0;labelBackgroundColor=none;strokeWidth=1;fillColor=none;fontFamily=Verdana;fontSize=12;align=center;comic=1;" vertex="1" parent="1">
          <mxGeometry x="1140" y="60" width="1020" height="80" as="geometry" />
        </mxCell>
        <mxCell id="_4Wk7NfBcytcVgkIfaO7-3" value="LOGO" style="whiteSpace=wrap;html=1;rounded=0;shadow=0;labelBackgroundColor=none;strokeWidth=1;fontFamily=Verdana;fontSize=28;align=center;comic=1;" vertex="1" parent="1">
          <mxGeometry x="1160" y="70" width="190" height="50" as="geometry" />
        </mxCell>
        <mxCell id="_4Wk7NfBcytcVgkIfaO7-4" value="Home" style="text;html=1;strokeColor=none;fillColor=none;align=center;verticalAlign=middle;whiteSpace=wrap;rounded=0;fontSize=18;" vertex="1" parent="1">
          <mxGeometry x="1560" y="80" width="80" height="30" as="geometry" />
        </mxCell>
        <mxCell id="_4Wk7NfBcytcVgkIfaO7-5" value="Ground Status" style="text;html=1;strokeColor=none;fillColor=none;align=center;verticalAlign=middle;whiteSpace=wrap;rounded=0;fontSize=18;" vertex="1" parent="1">
          <mxGeometry x="1660" y="80" width="130" height="30" as="geometry" />
        </mxCell>
        <mxCell id="_4Wk7NfBcytcVgkIfaO7-6" value="&lt;font style=&quot;font-size: 18px;&quot;&gt;Login&lt;/font&gt;" style="whiteSpace=wrap;html=1;rounded=0;shadow=0;labelBackgroundColor=none;strokeWidth=1;fontFamily=Verdana;fontSize=28;align=center;comic=1;" vertex="1" parent="1">
          <mxGeometry x="2060" y="75" width="70" height="40" as="geometry" />
        </mxCell>
        <mxCell id="_4Wk7NfBcytcVgkIfaO7-7" value="" style="whiteSpace=wrap;html=1;rounded=0;shadow=0;labelBackgroundColor=none;strokeWidth=1;fillColor=none;fontFamily=Verdana;fontSize=12;align=center;comic=1;" vertex="1" parent="1">
          <mxGeometry x="1366.25" y="210" width="607.5" height="425" as="geometry" />
        </mxCell>
        <mxCell id="_4Wk7NfBcytcVgkIfaO7-8" value="&lt;font style=&quot;font-size: 25px;&quot;&gt;&lt;b&gt;Payment Form&lt;/b&gt;&lt;/font&gt;" style="text;html=1;strokeColor=none;fillColor=none;align=center;verticalAlign=middle;whiteSpace=wrap;rounded=0;fontSize=19;" vertex="1" parent="1">
          <mxGeometry x="1565" y="250" width="190" height="30" as="geometry" />
        </mxCell>
        <mxCell id="_4Wk7NfBcytcVgkIfaO7-9" value="Name:" style="text;html=1;strokeColor=none;fillColor=none;align=center;verticalAlign=middle;whiteSpace=wrap;rounded=0;fontSize=19;" vertex="1" parent="1">
          <mxGeometry x="1395" y="320" width="100" height="30" as="geometry" />
        </mxCell>
        <mxCell id="_4Wk7NfBcytcVgkIfaO7-10" value="" style="rounded=1;whiteSpace=wrap;html=1;fontSize=19;" vertex="1" parent="1">
          <mxGeometry x="1525" y="314.5" width="385" height="41" as="geometry" />
        </mxCell>
        <mxCell id="_4Wk7NfBcytcVgkIfaO7-11" value="" style="rounded=0;whiteSpace=wrap;html=1;fontSize=25;" vertex="1" parent="1">
          <mxGeometry x="1405" y="400" width="265" height="40" as="geometry" />
        </mxCell>
        <mxCell id="_4Wk7NfBcytcVgkIfaO7-12" value="&lt;font style=&quot;font-size: 20px;&quot;&gt;Attach payment screenshot&lt;/font&gt;" style="text;html=1;strokeColor=none;fillColor=none;align=center;verticalAlign=middle;whiteSpace=wrap;rounded=0;fontSize=25;" vertex="1" parent="1">
          <mxGeometry x="1415" y="405" width="245" height="30" as="geometry" />
        </mxCell>
        <mxCell id="_4Wk7NfBcytcVgkIfaO7-13" value="image.jpg" style="text;html=1;strokeColor=none;fillColor=none;align=center;verticalAlign=middle;whiteSpace=wrap;rounded=0;fontSize=20;" vertex="1" parent="1">
          <mxGeometry x="1710" y="400" width="60" height="30" as="geometry" />
        </mxCell>
        <mxCell id="_4Wk7NfBcytcVgkIfaO7-14" value="" style="rounded=1;whiteSpace=wrap;html=1;fontSize=20;" vertex="1" parent="1">
          <mxGeometry x="1395" y="495" width="535" height="60" as="geometry" />
        </mxCell>
        <mxCell id="_4Wk7NfBcytcVgkIfaO7-15" value="Submit" style="text;html=1;strokeColor=none;fillColor=none;align=center;verticalAlign=middle;whiteSpace=wrap;rounded=0;fontSize=20;" vertex="1" parent="1">
          <mxGeometry x="1633" y="510" width="60" height="30" as="geometry" />
        </mxCell>
        <mxCell id="evXdOc6PxzhgjnGk_cjz-1" value="" style="line;strokeWidth=1;html=1;rounded=0;shadow=0;labelBackgroundColor=none;fillColor=none;fontFamily=Verdana;fontSize=14;fontColor=#000000;align=center;comic=1;" vertex="1" parent="1">
          <mxGeometry x="1120" y="690" width="1060" height="10" as="geometry" />
        </mxCell>
        <mxCell id="Yl0B-24pcq84SJgVPwpq-1" value="Copyright 2022 . Group 3" style="text;html=1;strokeColor=none;fillColor=none;align=center;verticalAlign=middle;whiteSpace=wrap;rounded=0;fontSize=20;" vertex="1" parent="1">
          <mxGeometry x="1515" y="720" width="290" height="30" as="geometry" />
        </mxCell>
      </root>
    </mxGraphModel>
  </diagram>
  <diagram id="xGuQwnCWC4GZYqrDStyI" name="Ground Status">
    <mxGraphModel dx="855" dy="300" grid="1" gridSize="10" guides="1" tooltips="1" connect="1" arrows="1" fold="1" page="1" pageScale="1" pageWidth="1100" pageHeight="850" math="0" shadow="0">
      <root>
        <mxCell id="0" />
        <mxCell id="1" parent="0" />
        <mxCell id="ZbPCJBA01QRviqXlbBbk-1" value="" style="whiteSpace=wrap;html=1;rounded=0;shadow=0;labelBackgroundColor=none;strokeWidth=1;fontFamily=Verdana;fontSize=12;align=center;comic=1;" vertex="1" parent="1">
          <mxGeometry x="1120" y="880" width="1060" height="730" as="geometry" />
        </mxCell>
        <mxCell id="ZbPCJBA01QRviqXlbBbk-2" value="" style="whiteSpace=wrap;html=1;rounded=0;shadow=0;labelBackgroundColor=none;strokeWidth=1;fillColor=none;fontFamily=Verdana;fontSize=12;align=center;comic=1;" vertex="1" parent="1">
          <mxGeometry x="1140" y="900" width="1020" height="80" as="geometry" />
        </mxCell>
        <mxCell id="ZbPCJBA01QRviqXlbBbk-3" value="LOGO" style="whiteSpace=wrap;html=1;rounded=0;shadow=0;labelBackgroundColor=none;strokeWidth=1;fontFamily=Verdana;fontSize=28;align=center;comic=1;" vertex="1" parent="1">
          <mxGeometry x="1156.25" y="910" width="190" height="50" as="geometry" />
        </mxCell>
        <mxCell id="ZbPCJBA01QRviqXlbBbk-4" value="Home" style="text;html=1;strokeColor=none;fillColor=none;align=center;verticalAlign=middle;whiteSpace=wrap;rounded=0;fontSize=18;" vertex="1" parent="1">
          <mxGeometry x="1540" y="920" width="80" height="30" as="geometry" />
        </mxCell>
        <mxCell id="ZbPCJBA01QRviqXlbBbk-5" value="&lt;font style=&quot;font-size: 18px;&quot;&gt;Login&lt;/font&gt;" style="whiteSpace=wrap;html=1;rounded=0;shadow=0;labelBackgroundColor=none;strokeWidth=1;fontFamily=Verdana;fontSize=28;align=center;comic=1;" vertex="1" parent="1">
          <mxGeometry x="2060" y="915" width="70" height="40" as="geometry" />
        </mxCell>
        <mxCell id="ZbPCJBA01QRviqXlbBbk-6" value="&lt;font style=&quot;font-size: 25px;&quot;&gt;&lt;b&gt;Ground Status&lt;/b&gt;&lt;/font&gt;" style="text;html=1;strokeColor=none;fillColor=none;align=center;verticalAlign=middle;whiteSpace=wrap;rounded=0;fontSize=19;" vertex="1" parent="1">
          <mxGeometry x="1520" y="1050" width="190" height="30" as="geometry" />
        </mxCell>
        <mxCell id="ZbPCJBA01QRviqXlbBbk-7" value="" style="rounded=0;whiteSpace=wrap;html=1;fontSize=20;" vertex="1" parent="1">
          <mxGeometry x="1180" y="1140" width="270" height="330" as="geometry" />
        </mxCell>
        <mxCell id="ZbPCJBA01QRviqXlbBbk-8" value="" style="rounded=0;whiteSpace=wrap;html=1;fontSize=20;" vertex="1" parent="1">
          <mxGeometry x="1508" y="1140" width="270" height="330" as="geometry" />
        </mxCell>
        <mxCell id="ZbPCJBA01QRviqXlbBbk-9" value="" style="rounded=0;whiteSpace=wrap;html=1;fontSize=20;" vertex="1" parent="1">
          <mxGeometry x="1840" y="1140" width="270" height="330" as="geometry" />
        </mxCell>
        <mxCell id="ZbPCJBA01QRviqXlbBbk-10" value="Name:" style="text;html=1;strokeColor=none;fillColor=none;align=center;verticalAlign=middle;whiteSpace=wrap;rounded=0;fontSize=19;" vertex="1" parent="1">
          <mxGeometry x="1210" y="1200" width="78.75" height="30" as="geometry" />
        </mxCell>
        <mxCell id="ZbPCJBA01QRviqXlbBbk-11" value="Date:" style="text;html=1;strokeColor=none;fillColor=none;align=center;verticalAlign=middle;whiteSpace=wrap;rounded=0;fontSize=19;" vertex="1" parent="1">
          <mxGeometry x="1205.63" y="1260" width="78.75" height="30" as="geometry" />
        </mxCell>
        <mxCell id="ZbPCJBA01QRviqXlbBbk-12" value="Time:" style="text;html=1;strokeColor=none;fillColor=none;align=center;verticalAlign=middle;whiteSpace=wrap;rounded=0;fontSize=19;" vertex="1" parent="1">
          <mxGeometry x="1205.63" y="1320" width="80" height="30" as="geometry" />
        </mxCell>
        <mxCell id="ZbPCJBA01QRviqXlbBbk-13" value="Status:" style="text;html=1;strokeColor=none;fillColor=none;align=center;verticalAlign=middle;whiteSpace=wrap;rounded=0;fontSize=19;" vertex="1" parent="1">
          <mxGeometry x="1210" y="1380" width="90" height="30" as="geometry" />
        </mxCell>
        <mxCell id="ZbPCJBA01QRviqXlbBbk-14" value="Username" style="text;html=1;strokeColor=none;fillColor=none;align=center;verticalAlign=middle;whiteSpace=wrap;rounded=0;fontSize=19;" vertex="1" parent="1">
          <mxGeometry x="1300" y="1200" width="100" height="30" as="geometry" />
        </mxCell>
        <mxCell id="ZbPCJBA01QRviqXlbBbk-15" value="01/01/2022" style="text;html=1;strokeColor=none;fillColor=none;align=center;verticalAlign=middle;whiteSpace=wrap;rounded=0;fontSize=19;" vertex="1" parent="1">
          <mxGeometry x="1300" y="1260" width="100" height="30" as="geometry" />
        </mxCell>
        <mxCell id="ZbPCJBA01QRviqXlbBbk-16" value="10:00 am" style="text;html=1;strokeColor=none;fillColor=none;align=center;verticalAlign=middle;whiteSpace=wrap;rounded=0;fontSize=19;" vertex="1" parent="1">
          <mxGeometry x="1295" y="1320" width="100" height="30" as="geometry" />
        </mxCell>
        <mxCell id="ZbPCJBA01QRviqXlbBbk-17" value="Booked" style="text;html=1;strokeColor=none;fillColor=none;align=center;verticalAlign=middle;whiteSpace=wrap;rounded=0;fontSize=19;" vertex="1" parent="1">
          <mxGeometry x="1288.75" y="1380" width="100" height="30" as="geometry" />
        </mxCell>
        <mxCell id="ZbPCJBA01QRviqXlbBbk-18" value="Name:" style="text;html=1;strokeColor=none;fillColor=none;align=center;verticalAlign=middle;whiteSpace=wrap;rounded=0;fontSize=19;" vertex="1" parent="1">
          <mxGeometry x="1534.25" y="1200" width="78.75" height="30" as="geometry" />
        </mxCell>
        <mxCell id="ZbPCJBA01QRviqXlbBbk-19" value="Date:" style="text;html=1;strokeColor=none;fillColor=none;align=center;verticalAlign=middle;whiteSpace=wrap;rounded=0;fontSize=19;" vertex="1" parent="1">
          <mxGeometry x="1530" y="1260" width="78.75" height="30" as="geometry" />
        </mxCell>
        <mxCell id="ZbPCJBA01QRviqXlbBbk-20" value="Time:" style="text;html=1;strokeColor=none;fillColor=none;align=center;verticalAlign=middle;whiteSpace=wrap;rounded=0;fontSize=19;" vertex="1" parent="1">
          <mxGeometry x="1530" y="1320" width="80" height="30" as="geometry" />
        </mxCell>
        <mxCell id="ZbPCJBA01QRviqXlbBbk-21" value="Status:" style="text;html=1;strokeColor=none;fillColor=none;align=center;verticalAlign=middle;whiteSpace=wrap;rounded=0;fontSize=19;" vertex="1" parent="1">
          <mxGeometry x="1534.25" y="1380" width="90" height="30" as="geometry" />
        </mxCell>
        <mxCell id="ZbPCJBA01QRviqXlbBbk-22" value="Username" style="text;html=1;strokeColor=none;fillColor=none;align=center;verticalAlign=middle;whiteSpace=wrap;rounded=0;fontSize=19;" vertex="1" parent="1">
          <mxGeometry x="1620" y="1200" width="100" height="30" as="geometry" />
        </mxCell>
        <mxCell id="ZbPCJBA01QRviqXlbBbk-23" value="01/01/2022" style="text;html=1;strokeColor=none;fillColor=none;align=center;verticalAlign=middle;whiteSpace=wrap;rounded=0;fontSize=19;" vertex="1" parent="1">
          <mxGeometry x="1624.25" y="1260" width="100" height="30" as="geometry" />
        </mxCell>
        <mxCell id="ZbPCJBA01QRviqXlbBbk-24" value="10:00 am" style="text;html=1;strokeColor=none;fillColor=none;align=center;verticalAlign=middle;whiteSpace=wrap;rounded=0;fontSize=19;" vertex="1" parent="1">
          <mxGeometry x="1613" y="1320" width="100" height="30" as="geometry" />
        </mxCell>
        <mxCell id="ZbPCJBA01QRviqXlbBbk-25" value="Booked" style="text;html=1;strokeColor=none;fillColor=none;align=center;verticalAlign=middle;whiteSpace=wrap;rounded=0;fontSize=19;" vertex="1" parent="1">
          <mxGeometry x="1620" y="1380" width="94.25" height="30" as="geometry" />
        </mxCell>
        <mxCell id="ZbPCJBA01QRviqXlbBbk-26" value="Name:" style="text;html=1;strokeColor=none;fillColor=none;align=center;verticalAlign=middle;whiteSpace=wrap;rounded=0;fontSize=19;" vertex="1" parent="1">
          <mxGeometry x="1860" y="1200" width="78.75" height="30" as="geometry" />
        </mxCell>
        <mxCell id="ZbPCJBA01QRviqXlbBbk-27" value="Date:" style="text;html=1;strokeColor=none;fillColor=none;align=center;verticalAlign=middle;whiteSpace=wrap;rounded=0;fontSize=19;" vertex="1" parent="1">
          <mxGeometry x="1860" y="1260" width="70" height="30" as="geometry" />
        </mxCell>
        <mxCell id="ZbPCJBA01QRviqXlbBbk-28" value="Time:" style="text;html=1;strokeColor=none;fillColor=none;align=center;verticalAlign=middle;whiteSpace=wrap;rounded=0;fontSize=19;" vertex="1" parent="1">
          <mxGeometry x="1860" y="1320" width="70" height="30" as="geometry" />
        </mxCell>
        <mxCell id="ZbPCJBA01QRviqXlbBbk-29" value="Status:" style="text;html=1;strokeColor=none;fillColor=none;align=center;verticalAlign=middle;whiteSpace=wrap;rounded=0;fontSize=19;" vertex="1" parent="1">
          <mxGeometry x="1863.75" y="1380" width="76.25" height="30" as="geometry" />
        </mxCell>
        <mxCell id="ZbPCJBA01QRviqXlbBbk-30" value="Username" style="text;html=1;strokeColor=none;fillColor=none;align=center;verticalAlign=middle;whiteSpace=wrap;rounded=0;fontSize=19;" vertex="1" parent="1">
          <mxGeometry x="1940" y="1200" width="100" height="30" as="geometry" />
        </mxCell>
        <mxCell id="ZbPCJBA01QRviqXlbBbk-31" value="01/01/2022" style="text;html=1;strokeColor=none;fillColor=none;align=center;verticalAlign=middle;whiteSpace=wrap;rounded=0;fontSize=19;" vertex="1" parent="1">
          <mxGeometry x="1940" y="1260" width="100" height="30" as="geometry" />
        </mxCell>
        <mxCell id="ZbPCJBA01QRviqXlbBbk-32" value="10:00 am" style="text;html=1;strokeColor=none;fillColor=none;align=center;verticalAlign=middle;whiteSpace=wrap;rounded=0;fontSize=19;" vertex="1" parent="1">
          <mxGeometry x="1940" y="1320" width="100" height="30" as="geometry" />
        </mxCell>
        <mxCell id="ZbPCJBA01QRviqXlbBbk-33" value="Booked" style="text;html=1;strokeColor=none;fillColor=none;align=center;verticalAlign=middle;whiteSpace=wrap;rounded=0;fontSize=19;" vertex="1" parent="1">
          <mxGeometry x="1945.75" y="1380" width="94.25" height="30" as="geometry" />
        </mxCell>
        <mxCell id="pkqZjyLEj168y3hGvG-s-1" value="Copyright 2022 . Group 3" style="text;html=1;strokeColor=none;fillColor=none;align=center;verticalAlign=middle;whiteSpace=wrap;rounded=0;fontSize=20;" vertex="1" parent="1">
          <mxGeometry x="1518" y="1560" width="290" height="30" as="geometry" />
        </mxCell>
        <mxCell id="-UyYcgWLL1YhmETDP4-Z-1" value="" style="line;strokeWidth=1;html=1;rounded=0;shadow=0;labelBackgroundColor=none;fillColor=none;fontFamily=Verdana;fontSize=14;fontColor=#000000;align=center;comic=1;" vertex="1" parent="1">
          <mxGeometry x="1120" y="1530" width="1060" height="10" as="geometry" />
        </mxCell>
        <mxCell id="15ol3Z2jOGC3t2uQBUqk-1" value="Ground Status" style="text;html=1;strokeColor=none;fillColor=none;align=center;verticalAlign=middle;whiteSpace=wrap;rounded=0;fontSize=18;" vertex="1" parent="1">
          <mxGeometry x="1660" y="920" width="130" height="30" as="geometry" />
        </mxCell>
      </root>
    </mxGraphModel>
  </diagram>
  <diagram id="f6SSibAryzTyGGc08EoM" name="Admin">
    <mxGraphModel dx="1507" dy="683" grid="1" gridSize="10" guides="1" tooltips="1" connect="1" arrows="1" fold="1" page="1" pageScale="1" pageWidth="1100" pageHeight="850" math="0" shadow="0">
      <root>
        <mxCell id="0" />
        <mxCell id="1" parent="0" />
        <mxCell id="tNaJyIvEnVM-7Wg7bKpH-3" value="" style="whiteSpace=wrap;html=1;rounded=0;shadow=0;labelBackgroundColor=none;strokeWidth=1;fontFamily=Verdana;fontSize=12;align=center;comic=1;" vertex="1" parent="1">
          <mxGeometry x="1130" y="870" width="1060" height="790" as="geometry" />
        </mxCell>
        <mxCell id="tNaJyIvEnVM-7Wg7bKpH-4" value="" style="whiteSpace=wrap;html=1;rounded=0;shadow=0;labelBackgroundColor=none;strokeWidth=1;fillColor=none;fontFamily=Verdana;fontSize=12;align=center;comic=1;" vertex="1" parent="1">
          <mxGeometry x="1150" y="920" width="1020" height="80" as="geometry" />
        </mxCell>
        <mxCell id="tNaJyIvEnVM-7Wg7bKpH-5" value="LOGO" style="whiteSpace=wrap;html=1;rounded=0;shadow=0;labelBackgroundColor=none;strokeWidth=1;fontFamily=Verdana;fontSize=28;align=center;comic=1;" vertex="1" parent="1">
          <mxGeometry x="1180" y="935" width="190" height="50" as="geometry" />
        </mxCell>
        <mxCell id="tNaJyIvEnVM-7Wg7bKpH-6" value="Home" style="text;html=1;strokeColor=none;fillColor=none;align=center;verticalAlign=middle;whiteSpace=wrap;rounded=0;fontSize=18;" vertex="1" parent="1">
          <mxGeometry x="1600" y="945" width="80" height="30" as="geometry" />
        </mxCell>
        <mxCell id="tNaJyIvEnVM-7Wg7bKpH-7" value="&lt;font style=&quot;font-size: 18px;&quot;&gt;Log Out&lt;/font&gt;" style="whiteSpace=wrap;html=1;rounded=0;shadow=0;labelBackgroundColor=none;strokeWidth=1;fontFamily=Verdana;fontSize=28;align=center;comic=1;" vertex="1" parent="1">
          <mxGeometry x="2050" y="940" width="102" height="40" as="geometry" />
        </mxCell>
        <mxCell id="tNaJyIvEnVM-7Wg7bKpH-8" value="" style="rounded=0;whiteSpace=wrap;html=1;fontSize=20;" vertex="1" parent="1">
          <mxGeometry x="1228" y="1070" width="410" height="475" as="geometry" />
        </mxCell>
        <mxCell id="tNaJyIvEnVM-7Wg7bKpH-9" value="" style="line;strokeWidth=1;html=1;rounded=0;shadow=0;labelBackgroundColor=none;fillColor=none;fontFamily=Verdana;fontSize=14;fontColor=#000000;align=center;comic=1;" vertex="1" parent="1">
          <mxGeometry x="1130" y="1580" width="1060" height="10" as="geometry" />
        </mxCell>
        <mxCell id="tNaJyIvEnVM-7Wg7bKpH-10" value="Name:" style="text;html=1;strokeColor=none;fillColor=none;align=center;verticalAlign=middle;whiteSpace=wrap;rounded=0;fontSize=19;" vertex="1" parent="1">
          <mxGeometry x="1266" y="1120" width="70" height="30" as="geometry" />
        </mxCell>
        <mxCell id="tNaJyIvEnVM-7Wg7bKpH-11" value="Email:" style="text;html=1;strokeColor=none;fillColor=none;align=center;verticalAlign=middle;whiteSpace=wrap;rounded=0;fontSize=19;" vertex="1" parent="1">
          <mxGeometry x="1267.5" y="1180" width="70" height="30" as="geometry" />
        </mxCell>
        <mxCell id="tNaJyIvEnVM-7Wg7bKpH-12" value="Date:" style="text;html=1;strokeColor=none;fillColor=none;align=center;verticalAlign=middle;whiteSpace=wrap;rounded=0;fontSize=19;" vertex="1" parent="1">
          <mxGeometry x="1271" y="1240" width="60" height="30" as="geometry" />
        </mxCell>
        <mxCell id="tNaJyIvEnVM-7Wg7bKpH-13" value="Time:" style="text;html=1;strokeColor=none;fillColor=none;align=center;verticalAlign=middle;whiteSpace=wrap;rounded=0;fontSize=19;" vertex="1" parent="1">
          <mxGeometry x="1271" y="1295" width="60" height="30" as="geometry" />
        </mxCell>
        <mxCell id="tNaJyIvEnVM-7Wg7bKpH-14" value="Status:" style="text;html=1;strokeColor=none;fillColor=none;align=center;verticalAlign=middle;whiteSpace=wrap;rounded=0;fontSize=19;" vertex="1" parent="1">
          <mxGeometry x="1277.5" y="1350" width="60" height="30" as="geometry" />
        </mxCell>
        <mxCell id="tNaJyIvEnVM-7Wg7bKpH-15" value="Payment:" style="text;html=1;strokeColor=none;fillColor=none;align=center;verticalAlign=middle;whiteSpace=wrap;rounded=0;fontSize=19;" vertex="1" parent="1">
          <mxGeometry x="1277.5" y="1410" width="75" height="30" as="geometry" />
        </mxCell>
        <mxCell id="tNaJyIvEnVM-7Wg7bKpH-16" value="Username" style="text;html=1;strokeColor=none;fillColor=none;align=center;verticalAlign=middle;whiteSpace=wrap;rounded=0;fontSize=19;" vertex="1" parent="1">
          <mxGeometry x="1376" y="1120" width="94" height="30" as="geometry" />
        </mxCell>
        <mxCell id="tNaJyIvEnVM-7Wg7bKpH-17" value="abcd12@gmail.com" style="text;html=1;strokeColor=none;fillColor=none;align=center;verticalAlign=middle;whiteSpace=wrap;rounded=0;fontSize=19;" vertex="1" parent="1">
          <mxGeometry x="1378" y="1180" width="172" height="30" as="geometry" />
        </mxCell>
        <mxCell id="tNaJyIvEnVM-7Wg7bKpH-18" value="10/01/2022" style="text;html=1;strokeColor=none;fillColor=none;align=center;verticalAlign=middle;whiteSpace=wrap;rounded=0;fontSize=19;" vertex="1" parent="1">
          <mxGeometry x="1378" y="1240" width="102" height="30" as="geometry" />
        </mxCell>
        <mxCell id="tNaJyIvEnVM-7Wg7bKpH-19" value="10:10 am" style="text;html=1;strokeColor=none;fillColor=none;align=center;verticalAlign=middle;whiteSpace=wrap;rounded=0;fontSize=19;" vertex="1" parent="1">
          <mxGeometry x="1378" y="1295" width="88" height="30" as="geometry" />
        </mxCell>
        <mxCell id="tNaJyIvEnVM-7Wg7bKpH-20" value="Booked" style="text;html=1;strokeColor=none;fillColor=none;align=center;verticalAlign=middle;whiteSpace=wrap;rounded=0;fontSize=19;" vertex="1" parent="1">
          <mxGeometry x="1374" y="1350" width="86" height="30" as="geometry" />
        </mxCell>
        <mxCell id="tNaJyIvEnVM-7Wg7bKpH-21" value="Not Paid" style="text;html=1;strokeColor=none;fillColor=none;align=center;verticalAlign=middle;whiteSpace=wrap;rounded=0;fontSize=19;" vertex="1" parent="1">
          <mxGeometry x="1382" y="1410" width="78" height="30" as="geometry" />
        </mxCell>
        <mxCell id="tNaJyIvEnVM-7Wg7bKpH-22" value="Confirm" style="rounded=1;whiteSpace=wrap;html=1;fontSize=20;" vertex="1" parent="1">
          <mxGeometry x="1258" y="1470" width="102" height="50" as="geometry" />
        </mxCell>
        <mxCell id="tNaJyIvEnVM-7Wg7bKpH-23" value="Reject" style="rounded=1;whiteSpace=wrap;html=1;fontSize=20;" vertex="1" parent="1">
          <mxGeometry x="1388" y="1470" width="102" height="50" as="geometry" />
        </mxCell>
        <mxCell id="tNaJyIvEnVM-7Wg7bKpH-24" value="Paid" style="rounded=1;whiteSpace=wrap;html=1;fontSize=20;" vertex="1" parent="1">
          <mxGeometry x="1518" y="1470" width="102" height="50" as="geometry" />
        </mxCell>
        <mxCell id="OrV5wr7skYJkzLIEwn5J-1" value="Ground Status" style="text;html=1;strokeColor=none;fillColor=none;align=center;verticalAlign=middle;whiteSpace=wrap;rounded=0;fontSize=18;" vertex="1" parent="1">
          <mxGeometry x="1707.5" y="945" width="130" height="30" as="geometry" />
        </mxCell>
        <mxCell id="OrV5wr7skYJkzLIEwn5J-2" value="Copyright 2022 . Group 3" style="text;html=1;strokeColor=none;fillColor=none;align=center;verticalAlign=middle;whiteSpace=wrap;rounded=0;fontSize=20;" vertex="1" parent="1">
          <mxGeometry x="1543" y="1610" width="257" height="30" as="geometry" />
        </mxCell>
      </root>
    </mxGraphModel>
  </diagram>
</mxfile>
